<svg width="16" height="28" viewBox="0 0 16 28" fill="none" xmlns="http://www.w3.org/2000/svg">
<path d="M8.61297 12.2889C5.04519 11.3711 3.89784 10.4222 3.89784 8.94444C3.89784 7.24889 5.48526 6.06667 8.14145 6.06667C10.9391 6.06667 11.9764 7.38889 12.0707 9.33333H15.5442C15.4342 6.65778 13.7839 4.2 10.499 3.40667V0H5.78389V3.36C2.73477 4.01333 0.282907 5.97333 0.282907 8.97556C0.282907 12.5689 3.28487 14.3578 7.66994 15.4C11.5992 16.3333 12.3851 17.7022 12.3851 19.1489C12.3851 20.2222 11.6149 21.9333 8.14145 21.9333C4.90373 21.9333 3.63065 20.5022 3.45776 18.6667H0C0.188605 22.0733 2.76621 23.9867 5.78389 24.6244V28H10.499V24.6556C13.5638 24.08 16 22.3222 16 19.1333C16 14.7156 12.1807 13.2067 8.61297 12.2889Z" fill="white"/>
</svg>
