<svg width="33" height="33" viewBox="0 0 33 33" fill="none" xmlns="http://www.w3.org/2000/svg">
<path d="M6.21612 22.239H6.21608H6.21608H6.21608H6.21607H6.21607H6.21606H6.21606H6.21606H6.21605H6.21605H6.21605H6.21604H6.21604H6.21603H6.21603H6.21603H6.21602H6.21602H6.21602H6.21601H6.21601H6.216H6.216H6.216H6.21599H6.21599H6.21598H6.21598H6.21598H6.21597H6.21597H6.21597H6.21596H6.21596H6.21595H6.21595H6.21595H6.21594H6.21594H6.21593H6.21593H6.21593H6.21592H6.21592H6.21591H6.21591H6.21591H6.2159H6.2159H6.2159H6.21589H6.21589H6.21588H6.21588H6.21588H6.21587H6.21587H6.21587H6.21586H6.21586H6.21585H6.21585H6.21585H6.21584H6.21584H6.21583H6.21583H6.21583H6.21582H2.04246C2.04245 22.239 2.04244 22.239 2.04243 22.239C1.67158 22.239 1.37084 22.5395 1.37075 22.9104V22.9104V22.9104V22.9104V22.9104V22.9104V22.9104V22.9104V22.9104V22.9104V22.9104V22.9104V22.9104V22.9104V22.9104V22.9104V22.9104V22.9104V22.9104V22.9104V22.9104V22.9105V22.9105V22.9105V22.9105V22.9105V22.9105V22.9105V22.9105V22.9105V22.9105V22.9105V22.9105V22.9105V22.9105V22.9105V22.9105V22.9105V22.9105V22.9105V22.9105V22.9105V22.9105V22.9105V22.9105V22.9105V22.9105V22.9105V22.9105V22.9105V22.9105V22.9105V22.9105V22.9105V22.9105V22.9105V22.9105V22.9105V22.9105V22.9105V22.9105V22.9105V22.9105V22.9105V22.9105V22.9105V22.9105V22.9105V22.9105V22.9105V22.9105V22.9105V22.9105V22.9105V22.9105V22.9105V22.9105V22.9105V22.9105V22.9105V22.9105V22.9105V22.9105V22.9105V22.9105V22.9105V22.9105V22.9105V22.9105V22.9105V22.9105V22.9105V22.9105V22.9105V22.9105V22.9105V22.9105V22.9105V22.9105V22.9105V22.9105V22.9105V22.9105V22.9105V22.9105V22.9105V22.9105V22.9105V22.9105V22.9105V22.9105V22.9105V22.9105V22.9105V22.9105V22.9105V22.9105V22.9105V22.9105V22.9105V22.9105V22.9105V22.9105V22.9105V22.9105V22.9105V22.9105V22.9105V22.9105V22.9105V22.9105V22.9105V22.9105V22.9105V22.9105V22.9105V22.9105V22.9105V22.9105V22.9105V22.9105V22.9105V22.9105V22.9105V22.9105V22.9105V22.9105V22.9105V22.9105V22.9105V22.9105V22.9105V22.9105V22.9105V22.9105V22.9105V22.9105V22.9105V22.9105V22.9105V22.9105V22.9105V22.9105V22.9105V22.9105V22.9105V22.9105V22.9105V22.9105V22.9105V22.9105V22.9105V22.9105V22.9105V22.9105V22.9105V22.9105V22.9105V22.9105V22.9105V22.9105V22.9105V22.9105V22.9105V22.9105V22.9105V22.9105V22.9105V22.9105V22.9105V22.9105V22.9105V22.9105V22.9105V22.9105V22.9105V22.9105V22.9105V22.9105V22.9105V22.9105V22.9105V22.9105V22.9106V22.9106V22.9106V22.9106V22.9106V22.9106V22.9106V22.9106V22.9106V22.9106V22.9106V22.9106V22.9106V22.9106V22.9106V22.9106V22.9106V22.9106V22.9106V22.9106V22.9106V22.9106V22.9106V22.9106V22.9106V22.9106V22.9106V22.9106V22.9106V22.9106V22.9106V22.9106V22.9106V22.9106V22.9106V22.9106V22.9106V22.9106V22.9106V22.9106V22.9106V22.9106V22.9106V22.9106V22.9106V22.9106V22.9106V22.9106V22.9106V22.9106V22.9106V22.9106V22.9106V22.9106V22.9106V22.9106V22.9106V22.9106V22.9106V22.9106V22.9106V22.9106V22.9106V22.9106V22.9106V22.9106V22.9106V22.9106V22.9106V22.9106V22.9106V22.9106V22.9106V22.9106V22.9106V22.9106V22.9106V22.9106V22.9106V22.9106V22.9106V22.9106V22.9106V22.9106V22.9106V22.9106V22.9106V22.9106V22.9106V22.9106V22.9106V22.9106V22.9106V22.9106V22.9106V22.9106V22.9106V22.9106V22.9106V22.9106V22.9106V22.9106V22.9106V22.9106V22.9106V22.9106V22.9106V22.9106V22.9106V22.9106V22.9106V22.9106V22.9106V22.9106V22.9106V22.9106V22.9106V22.9106V22.9106V22.9106V22.9106V22.9106V22.9106V22.9106V22.9106V22.9106V22.9106V22.9106V22.9106V22.9106V22.9106V22.9106V22.9106V22.9106V22.9106V22.9106V22.9106V22.9106V22.9106V22.9106V22.9106V22.9106V22.9106V22.9106V22.9106V22.9106V22.9106V22.9106V22.9106V22.9106V22.9106V22.9106V22.9106V22.9106V22.9106V22.9106V22.9106V22.9106V22.9106V22.9106V22.9106V22.9106V22.9106V22.9106V22.9106V22.9106V22.9106V22.9106V22.9106V22.9106V22.9106V22.9106V22.9106V22.9106V22.9106V22.9106V22.9106V22.9106V22.9106V22.9107V22.9107V22.9107V22.9107V22.9107V22.9107V22.9107V22.9107V22.9107V22.9107V22.9107V22.9107V22.9107V22.9107V22.9107V22.9107V22.9107V22.9107V22.9107V22.9107V22.9107V22.9107V22.9107V22.9107V22.9107V22.9107V22.9107V22.9107V22.9107V22.9107V22.9107V22.9107V22.9107V22.9107V22.9107V22.9107V22.9107V22.9107V22.9107V22.9107V22.9107V22.9107V22.9107V22.9107V22.9107V22.9107V22.9107V22.9107V22.9107V22.9107V22.9107V22.9107V22.9107V22.9107V22.9107V22.9107V22.9107V22.9107V22.9107V22.9107V22.9107V22.9107V22.9107V22.9107V22.9107V22.9107V22.9107V22.9107V22.9107V22.9107V22.9107V22.9107V22.9107V22.9107V22.9107V22.9107V22.9107V22.9107V31.7791C1.37075 31.7791 1.37075 31.7792 1.37075 31.7792C1.37069 32.15 1.67126 32.4508 2.04213 32.4508H2.04217H2.04217H2.04218H2.04219H2.0422H2.0422H2.04221H2.04222H2.04222H2.04223H2.04224H2.04225H2.04225H2.04226H2.04227H2.04228H2.04228H2.04229H2.0423H2.04231H2.04231H2.04232H2.04233H2.04234H2.04234H2.04235H2.04236H2.04237H2.04237H2.04238H2.04239H2.04239H2.0424H2.04241H2.04242H2.04242H6.21579C6.2158 32.4508 6.21581 32.4508 6.21582 32.4508C6.58667 32.4509 6.88741 32.1503 6.8875 31.7795V31.7794V31.7794V31.7794V31.7794V31.7794V31.7794V31.7794V31.7794V31.7794V31.7794V31.7793V31.7793V31.7793V31.7793V31.7793V31.7793V31.7793V31.7793V31.7793V31.7793V31.7793V31.7793V31.7793V31.7792V31.7792V31.7792V31.7792V31.7792V31.7792V31.7792V31.7792V31.7792V31.7792V31.7792V31.7792V22.9107C6.8875 22.9107 6.8875 22.9107 6.8875 22.9107C6.88756 22.5398 6.58699 22.2391 6.21612 22.239ZM5.54408 31.1075H2.71404V23.5824H5.54408V31.1075Z" fill="white" stroke="white" stroke-width="0.3"/>
<path d="M24.9966 18.0656H24.9966H24.9966H24.9966H24.9966H24.9966H24.9966H24.9966H24.9966H24.9966H24.9966H24.9966H24.9966H24.9966H24.9965H24.9965H24.9965H24.9965H24.9965H24.9965H24.9965H24.9965H24.9965H24.9965H24.9965H24.9965H24.9965H24.9965H24.9965H24.9965H24.9965H24.9965H24.9965H24.9965H24.9965H24.9965H24.9965H24.9965H24.9965H24.9965H24.9964H24.9964H24.9964H24.9964H24.9964H24.9964H24.9964H24.9964H24.9964H24.9964H24.9964H24.9964H24.9964H24.9964H24.9964H24.9964H24.9964H24.9964H24.9964H24.9964H24.9964H24.9964H24.9964H24.9964H24.9964H24.9964H24.9963H24.9963H24.9963H24.9963H20.823C20.823 18.0656 20.823 18.0656 20.8229 18.0656C20.4521 18.0655 20.1514 18.3661 20.1513 18.737V18.737V18.737V18.737V18.737V18.737V18.737V18.737V18.737V18.737V18.737V18.737V18.737V18.737V18.737V18.737V18.737V18.737V18.737V18.737V18.737V18.737V18.737V18.737V18.737V18.737V18.737V18.737V18.737V18.737V18.737V18.737V18.737V18.737V18.737V18.737V18.737V18.737V18.737V18.737V18.737V18.737V18.737V18.737V18.737V18.737V18.737V18.737V18.7371V18.7371V18.7371V18.7371V18.7371V18.7371V18.7371V18.7371V18.7371V18.7371V18.7371V18.7371V18.7371V18.7371V18.7371V18.7371V18.7371V18.7371V18.7371V18.7371V18.7371V18.7371V18.7371V18.7371V18.7371V18.7371V18.7371V18.7371V18.7371V18.7371V18.7371V18.7371V18.7371V18.7371V18.7371V18.7371V18.7371V18.7371V18.7371V18.7371V18.7371V18.7371V18.7371V18.7371V18.7371V18.7371V18.7371V18.7371V18.7371V18.7371V18.7371V18.7371V18.7371V18.7371V18.7371V18.7371V18.7371V18.7371V18.7371V18.7371V18.7371V18.7371V18.7371V18.7371V18.7371V18.7371V18.7371V18.7371V18.7371V18.7371V18.7371V18.7371V18.7371V18.7371V18.7371V18.7371V18.7371V18.7371V18.7371V18.7371V18.7371V18.7371V18.7371V18.7371V18.7371V18.7371V18.7371V18.7371V18.7371V18.7371V18.7371V18.7371V18.7371V18.7371V18.7371V18.7371V18.7371V18.7371V18.7371V18.7371V18.7371V18.7371V18.7371V18.7371V18.7371V18.7371V18.7371V18.7371V18.7371V18.7371V18.7371V18.7371V18.7371V18.7371V18.7371V18.7371V18.7371V18.7371V18.7371V18.7371V18.7371V18.7371V18.7371V18.7371V18.7371V18.7371V18.7371V18.7371V18.7371V18.7371V18.7371V18.7371V18.7371V18.7371V18.7371V18.7371V18.7371V18.7371V18.7371V18.7371V18.7371V18.7371V18.7371V18.7371V18.7371V18.7371V18.7371V18.7371V18.7371V18.7371V18.7371V18.7371V18.7371V18.7371V18.7371V18.7371V18.7371V18.7371V18.7371V18.7371V18.7371V18.7371V18.7371V18.7371V18.7371V18.7371V18.7371V18.7371V18.7371V18.7371V18.7371V18.7371V18.7371V18.7371V18.7371V18.7371V18.7371V18.7371V18.7371V18.7371V18.7371V18.7371V18.7371V18.7372V18.7372V18.7372V18.7372V18.7372V18.7372V18.7372V18.7372V18.7372V18.7372V18.7372V18.7372V18.7372V18.7372V18.7372V18.7372V18.7372V18.7372V18.7372V18.7372V18.7372V18.7372V18.7372V18.7372V18.7372V18.7372V18.7372V18.7372V18.7372V18.7372V18.7372V18.7372V18.7372V18.7372V18.7372V18.7372V18.7372V18.7372V18.7372V18.7372V18.7372V18.7372V18.7372V18.7372V18.7372V18.7372V18.7372V18.7372V18.7372V18.7372V18.7372V18.7372V18.7372V18.7372V18.7372V18.7372V18.7372V18.7372V18.7372V18.7372V18.7372V18.7372V18.7372V18.7372V18.7372V18.7372V18.7372V18.7372V18.7372V18.7372V18.7372V18.7372V18.7372V18.7372V18.7372V18.7372V18.7372V18.7372V18.7372V18.7372V18.7372V18.7372V18.7372V18.7372V18.7372V18.7372V18.7372V18.7372V18.7372V18.7372V18.7372V18.7372V18.7372V18.7372V18.7372V18.7372V18.7372V18.7372V18.7372V18.7372V18.7372V18.7372V18.7372V18.7372V18.7372V18.7372V18.7372V18.7372V18.7372V18.7372V18.7372V18.7372V18.7372V18.7372V18.7372V18.7372V18.7372V18.7372V18.7372V18.7372V18.7372V18.7372V18.7372V18.7372V18.7372V18.7372V18.7372V18.7372V18.7372V18.7372V18.7372V18.7372V18.7372V18.7372V18.7372V18.7372V18.7372V18.7372V18.7372V18.7372V18.7372V18.7372V18.7372V18.7372V18.7372V18.7372V18.7372V18.7372V18.7372V18.7372V18.7372V18.7372V18.7372V18.7372V18.7372V18.7372V18.7372V18.7372V18.7372V18.7372V18.7372V18.7372V18.7372V18.7372V18.7372V18.7372V18.7372V18.7372V18.7372V18.7372V18.7372V18.7372V18.7372V18.7372V18.7372V18.7372V18.7372V18.7372V18.7372V18.7372V18.7372V18.7372V18.7372V18.7372V18.7373V18.7373V18.7373V18.7373V18.7373V18.7373V18.7373V18.7373V18.7373V18.7373V18.7373V18.7373V18.7373V18.7373V18.7373V18.7373V18.7373V18.7373V18.7373V18.7373V18.7373V18.7373V18.7373V18.7373V18.7373V18.7373V18.7373V18.7373V18.7373V18.7373V18.7373V18.7373V18.7373V18.7373V18.7373V18.7373V18.7373V18.7373V18.7373V18.7373V18.7373V18.7373V18.7373V18.7373V18.7373V31.7791C20.1513 31.7791 20.1513 31.7791 20.1513 31.7791C20.1512 32.15 20.4518 32.4507 20.8226 32.4508H20.8227H20.8227H20.8227H20.8227H20.8227H20.8227H20.8227H20.8227H20.8227H20.8227H20.8228H20.8228H20.8228H20.8228H20.8228H20.8228H20.8228H20.8228H20.8228H20.8228H20.8228H20.8228H20.8228H20.8229H20.8229H20.8229H20.8229H20.8229H20.8229H20.8229H20.8229H20.8229H20.8229H20.8229H20.8229H20.8229H24.9963C24.9963 32.4508 24.9963 32.4508 24.9963 32.4508C25.3672 32.4509 25.6679 32.1503 25.668 31.7794V31.7794V31.7794V31.7794V31.7794V31.7794V31.7794V31.7794V31.7793V31.7793V31.7793V31.7793V31.7793V31.7793V31.7793V31.7793V31.7793V31.7793V31.7793V31.7793V31.7793V31.7792V31.7792V31.7792V31.7792V31.7792V31.7792V31.7792V31.7792V31.7792V31.7792V31.7792V31.7792V31.7792V31.7791V31.7791V18.7373C25.668 18.7373 25.668 18.7373 25.668 18.7373C25.6681 18.3664 25.3675 18.0657 24.9966 18.0656ZM24.3246 31.1075H21.4946V19.409H24.3246V31.1075Z" fill="white" stroke="white" stroke-width="0.3"/>
<path d="M18.7363 20.674H18.7362H18.7362H18.7362H18.7362H18.7362H18.7362H18.7362H18.7362H18.7362H18.7362H18.7362H18.7362H18.7362H18.7362H18.7362H18.7362H18.7362H18.7362H18.7362H18.7362H18.7362H18.7361H18.7361H18.7361H18.7361H18.7361H18.7361H18.7361H18.7361H18.7361H18.7361H18.7361H18.7361H18.7361H18.7361H18.7361H18.7361H18.7361H18.7361H18.7361H18.7361H18.7361H18.7361H18.7361H18.7361H18.7361H18.7361H18.736H18.736H18.736H18.736H18.736H18.736H18.736H18.736H18.736H18.736H18.736H18.736H18.736H18.736H18.736H18.736H18.736H18.736H18.736H18.736H18.736H18.736H14.5626C14.5626 20.674 14.5626 20.674 14.5626 20.674C14.1917 20.6739 13.891 20.9745 13.8909 21.3454V21.3454V21.3454V21.3454V21.3454V21.3454V21.3454V21.3454V21.3454V21.3454V21.3454V21.3454V21.3454V21.3454V21.3454V21.3454V21.3454V21.3454V21.3454V21.3454V21.3454V21.3454V21.3454V21.3454V21.3454V21.3454V21.3454V21.3454V21.3454V21.3454V21.3454V21.3454V21.3454V21.3454V21.3454V21.3454V21.3454V21.3454V21.3454V21.3454V21.3454V21.3454V21.3454V21.3454V21.3454V21.3454V21.3454V21.3454V21.3454V21.3454V21.3454V21.3454V21.3454V21.3454V21.3454V21.3454V21.3454V21.3454V21.3454V21.3454V21.3454V21.3454V21.3454V21.3454V21.3454V21.3454V21.3454V21.3454V21.3454V21.3454V21.3454V21.3454V21.3454V21.3454V21.3454V21.3454V21.3454V21.3454V21.3454V21.3454V21.3454V21.3454V21.3455V21.3455V21.3455V21.3455V21.3455V21.3455V21.3455V21.3455V21.3455V21.3455V21.3455V21.3455V21.3455V21.3455V21.3455V21.3455V21.3455V21.3455V21.3455V21.3455V21.3455V21.3455V21.3455V21.3455V21.3455V21.3455V21.3455V21.3455V21.3455V21.3455V21.3455V21.3455V21.3455V21.3455V21.3455V21.3455V21.3455V21.3455V21.3455V21.3455V21.3455V21.3455V21.3455V21.3455V21.3455V21.3455V21.3455V21.3455V21.3455V21.3455V21.3455V21.3455V21.3455V21.3455V21.3455V21.3455V21.3455V21.3455V21.3455V21.3455V21.3455V21.3455V21.3455V21.3455V21.3455V21.3455V21.3455V21.3455V21.3455V21.3455V21.3455V21.3455V21.3455V21.3455V21.3455V21.3455V21.3455V21.3455V21.3455V21.3455V21.3455V21.3455V21.3455V21.3455V21.3455V21.3455V21.3455V21.3455V21.3455V21.3455V21.3455V21.3455V21.3455V21.3455V21.3455V21.3455V21.3455V21.3455V21.3455V21.3455V21.3455V21.3455V21.3455V21.3455V21.3455V21.3455V21.3455V21.3455V21.3455V21.3455V21.3455V21.3455V21.3455V21.3455V21.3455V21.3455V21.3455V21.3455V21.3455V21.3455V21.3455V21.3455V21.3455V21.3455V21.3455V21.3455V21.3455V21.3455V21.3455V21.3455V21.3455V21.3455V21.3455V21.3455V21.3455V21.3455V21.3455V21.3455V21.3455V21.3455V21.3455V21.3455V21.3455V21.3455V21.3455V21.3455V21.3455V21.3455V21.3455V21.3455V21.3455V21.3455V21.3455V21.3455V21.3455V21.3455V21.3455V21.3455V21.3455V21.3455V21.3455V21.3455V21.3455V21.3455V21.3455V21.3455V21.3455V21.3455V21.3455V21.3455V21.3455V21.3455V21.3455V21.3455V21.3455V21.3455V21.3455V21.3455V21.3456V21.3456V21.3456V21.3456V21.3456V21.3456V21.3456V21.3456V21.3456V21.3456V21.3456V21.3456V21.3456V21.3456V21.3456V21.3456V21.3456V21.3456V21.3456V21.3456V21.3456V21.3456V21.3456V21.3456V21.3456V21.3456V21.3456V21.3456V21.3456V21.3456V21.3456V21.3456V21.3456V21.3456V21.3456V21.3456V21.3456V21.3456V21.3456V21.3456V21.3456V21.3456V21.3456V21.3456V21.3456V21.3456V21.3456V21.3456V21.3456V21.3456V21.3456V21.3456V21.3456V21.3456V21.3456V21.3456V21.3456V21.3456V21.3456V21.3456V21.3456V21.3456V21.3456V21.3456V21.3456V21.3456V21.3456V21.3456V21.3456V21.3456V21.3456V21.3456V21.3456V21.3456V21.3456V21.3456V21.3456V21.3456V21.3456V21.3456V21.3456V21.3456V21.3456V21.3456V21.3456V21.3456V21.3456V21.3456V21.3456V21.3456V21.3456V21.3456V21.3456V21.3456V21.3456V21.3456V21.3456V21.3456V21.3456V21.3456V21.3456V21.3456V21.3456V21.3456V21.3456V21.3456V21.3456V21.3456V21.3456V21.3456V21.3456V21.3456V21.3456V21.3456V21.3456V21.3456V21.3456V21.3456V21.3456V21.3456V21.3456V21.3456V21.3456V21.3456V21.3456V21.3456V21.3456V21.3456V21.3456V21.3456V21.3456V21.3456V21.3456V21.3456V21.3456V21.3456V21.3456V21.3456V21.3456V21.3456V21.3456V21.3456V21.3456V21.3456V21.3456V21.3456V21.3456V21.3456V21.3456V21.3456V21.3456V21.3456V21.3456V21.3456V21.3456V21.3456V21.3456V21.3456V21.3456V21.3456V21.3456V21.3456V21.3456V21.3456V21.3456V21.3456V21.3456V21.3456V21.3456V21.3456V21.3456V21.3456V21.3456V21.3456V21.3456V21.3456V21.3456V21.3456V21.3456V21.3456V21.3456V21.3456V21.3457V21.3457V21.3457V21.3457V21.3457V21.3457V21.3457V21.3457V21.3457V21.3457V21.3457V21.3457V21.3457V21.3457V21.3457V21.3457V21.3457V21.3457V31.7791C13.8909 31.7791 13.8909 31.7791 13.8909 31.7792C13.8908 32.15 14.1914 32.4507 14.5623 32.4508H14.5623H14.5623H14.5623H14.5623H14.5623H14.5623H14.5624H14.5624H14.5624H14.5624H14.5624H14.5624H14.5624H14.5624H14.5624H14.5624H14.5624H14.5624H14.5624H14.5624H14.5625H14.5625H14.5625H14.5625H14.5625H14.5625H14.5625H14.5625H14.5625H14.5625H14.5625H14.5625H14.5625H14.5626H14.5626H14.5626H18.7359C18.7359 32.4508 18.736 32.4508 18.736 32.4508C19.1068 32.4509 19.4076 32.1503 19.4076 31.7794V31.7794V31.7794V31.7794V31.7794V31.7794V31.7794V31.7794V31.7794V31.7793V31.7793V31.7793V31.7793V31.7793V31.7793V31.7793V31.7793V31.7793V31.7793V31.7793V31.7793V31.7793V31.7793V31.7792V31.7792V31.7792V31.7792V31.7792V31.7792V31.7792V31.7792V31.7792V31.7792V31.7792V31.7792V31.7792V21.3457C19.4076 21.3457 19.4076 21.3457 19.4076 21.3457C19.4077 20.9748 19.1071 20.6741 18.7363 20.674ZM18.0642 31.1075H15.2342V22.0173H18.0642V31.1075Z" fill="white" stroke="white" stroke-width="0.3"/>
<path d="M12.4767 14.4139H12.4767H12.4767H12.4767H12.4767H12.4767H12.4767H12.4767H12.4767H12.4767H12.4767H12.4767H12.4767H12.4767H12.4767H12.4766H12.4766H12.4766H12.4766H12.4766H12.4766H12.4766H12.4766H12.4766H12.4766H12.4766H12.4766H12.4766H12.4766H12.4766H12.4766H12.4766H12.4766H12.4766H12.4766H12.4766H12.4766H12.4766H12.4766H12.4766H12.4766H12.4765H12.4765H12.4765H12.4765H12.4765H12.4765H12.4765H12.4765H12.4765H12.4765H12.4765H12.4765H12.4765H12.4765H12.4765H12.4765H12.4765H12.4765H12.4765H12.4765H12.4765H12.4765H12.4765H12.4765H12.4765H12.4765H12.4764H12.4764H8.30308C8.30307 14.4139 8.30306 14.4139 8.30305 14.4139C7.9322 14.4138 7.63146 14.7144 7.63137 15.0853V15.0853V15.0853V15.0853V15.0853V15.0853V15.0853V15.0853V15.0853V15.0853V15.0853V15.0853V15.0853V15.0853V15.0853V15.0853V15.0853V15.0853V15.0853V15.0853V15.0853V15.0853V15.0853V15.0853V15.0853V15.0853V15.0853V15.0853V15.0853V15.0853V15.0853V15.0853V15.0853V15.0853V15.0853V15.0853V15.0853V15.0853V15.0853V15.0853V15.0853V15.0853V15.0853V15.0853V15.0853V15.0853V15.0853V15.0853V15.0853V15.0853V15.0853V15.0853V15.0853V15.0853V15.0853V15.0853V15.0853V15.0853V15.0853V15.0853V15.0853V15.0853V15.0853V15.0853V15.0853V15.0853V15.0853V15.0853V15.0853V15.0853V15.0853V15.0853V15.0853V15.0853V15.0853V15.0853V15.0853V15.0853V15.0853V15.0853V15.0853V15.0853V15.0853V15.0853V15.0853V15.0853V15.0853V15.0853V15.0853V15.0853V15.0853V15.0853V15.0853V15.0853V15.0853V15.0853V15.0853V15.0853V15.0853V15.0853V15.0853V15.0853V15.0853V15.0853V15.0853V15.0853V15.0853V15.0853V15.0854V15.0854V15.0854V15.0854V15.0854V15.0854V15.0854V15.0854V15.0854V15.0854V15.0854V15.0854V15.0854V15.0854V15.0854V15.0854V15.0854V15.0854V15.0854V15.0854V15.0854V15.0854V15.0854V15.0854V15.0854V15.0854V15.0854V15.0854V15.0854V15.0854V15.0854V15.0854V15.0854V15.0854V15.0854V15.0854V15.0854V15.0854V15.0854V15.0854V15.0854V15.0854V15.0854V15.0854V15.0854V15.0854V15.0854V15.0854V15.0854V15.0854V15.0854V15.0854V15.0854V15.0854V15.0854V15.0854V15.0854V15.0854V15.0854V15.0854V15.0854V15.0854V15.0854V15.0854V15.0854V15.0854V15.0854V15.0854V15.0854V15.0854V15.0854V15.0854V15.0854V15.0854V15.0854V15.0854V15.0854V15.0854V15.0854V15.0854V15.0854V15.0854V15.0854V15.0854V15.0854V15.0854V15.0854V15.0854V15.0854V15.0854V15.0854V15.0854V15.0854V15.0854V15.0854V15.0854V15.0854V15.0854V15.0854V15.0854V15.0854V15.0854V15.0854V15.0854V15.0854V15.0854V15.0854V15.0854V15.0854V15.0854V15.0854V15.0854V15.0854V15.0854V15.0854V15.0854V15.0854V15.0854V15.0854V15.0854V15.0854V15.0854V15.0854V15.0854V15.0854V15.0854V15.0854V15.0854V15.0854V15.0854V15.0854V15.0854V15.0854V15.0854V15.0854V15.0854V15.0854V15.0854V15.0854V15.0854V15.0854V15.0854V15.0854V15.0854V15.0854V15.0854V15.0854V15.0854V15.0854V15.0854V15.0854V15.0854V15.0854V15.0854V15.0854V15.0854V15.0854V15.0854V15.0854V15.0854V15.0854V15.0854V15.0854V15.0854V15.0854V15.0854V15.0854V15.0854V15.0854V15.0854V15.0854V15.0854V15.0854V15.0854V15.0854V15.0854V15.0854V15.0854V15.0855V15.0855V15.0855V15.0855V15.0855V15.0855V15.0855V15.0855V15.0855V15.0855V15.0855V15.0855V15.0855V15.0855V15.0855V15.0855V15.0855V15.0855V15.0855V15.0855V15.0855V15.0855V15.0855V15.0855V15.0855V15.0855V15.0855V15.0855V15.0855V15.0855V15.0855V15.0855V15.0855V15.0855V15.0855V15.0855V15.0855V15.0855V15.0855V15.0855V15.0855V15.0855V15.0855V15.0855V15.0855V15.0855V15.0855V15.0855V15.0855V15.0855V15.0855V15.0855V15.0855V15.0855V15.0855V15.0855V15.0855V15.0855V15.0855V15.0855V15.0855V15.0855V15.0855V15.0855V15.0855V15.0855V15.0855V15.0855V15.0855V15.0855V15.0855V15.0855V15.0855V15.0855V15.0855V15.0855V15.0855V15.0855V15.0855V15.0855V15.0855V15.0855V15.0855V15.0855V15.0855V15.0855V15.0855V15.0855V15.0855V15.0855V15.0855V15.0855V15.0855V15.0855V15.0855V15.0855V15.0855V15.0855V15.0855V15.0855V15.0855V15.0855V15.0855V15.0855V15.0855V15.0855V15.0855V15.0855V15.0855V15.0855V15.0855V15.0855V15.0855V15.0855V15.0855V15.0855V15.0855V15.0855V15.0855V15.0855V15.0855V15.0855V15.0855V15.0855V15.0855V15.0855V15.0855V15.0855V15.0855V15.0855V15.0855V15.0855V15.0855V15.0855V15.0855V15.0855V15.0855V15.0855V15.0855V15.0855V15.0855V15.0855V15.0855V15.0855V15.0855V15.0855V15.0855V15.0855V15.0855V15.0855V15.0855V15.0855V15.0855V15.0855V15.0855V15.0855V15.0855V15.0855V15.0855V15.0855V15.0855V15.0855V15.0855V15.0855V15.0855V15.0855V15.0855V15.0855V15.0855V15.0855V31.7791C7.63137 31.7791 7.63137 31.7791 7.63137 31.7791C7.63131 32.15 7.93188 32.4507 8.30275 32.4508H8.30279H8.3028H8.30282H8.30283H8.30284H8.30286H8.30287H8.30289H8.3029H8.30292H8.30293H8.30295H8.30296H8.30298H8.30299H8.30301H8.30302H8.30303H12.4764C12.4764 32.4508 12.4764 32.4508 12.4764 32.4508C12.8473 32.4509 13.148 32.1503 13.1481 31.7794V31.7794V31.7794V31.7794V31.7793V31.7793V31.7793V31.7793V31.7793V31.7793V31.7793V31.7792V31.7792V31.7792V31.7792V31.7792V31.7792V31.7792V31.7791V15.0856C13.1481 15.0856 13.1481 15.0856 13.1481 15.0855C13.1482 14.7147 12.8476 14.414 12.4767 14.4139ZM11.8047 31.1075H8.97466V15.7572H11.8047V31.1075Z" fill="white" stroke="white" stroke-width="0.3"/>
<path d="M31.2568 24.8474H31.2567H31.2567H31.2567H31.2567H31.2567H31.2567H31.2567H31.2567H31.2567H31.2567H31.2567H31.2567H31.2567H31.2567H31.2567H31.2567H31.2567H31.2567H31.2567H31.2567H31.2567H31.2567H31.2566H31.2566H31.2566H31.2566H31.2566H31.2566H31.2566H31.2566H31.2566H31.2566H31.2566H31.2566H31.2566H31.2566H31.2566H31.2566H31.2566H31.2566H31.2566H31.2566H31.2566H31.2566H31.2566H31.2566H31.2566H31.2565H31.2565H31.2565H31.2565H31.2565H31.2565H31.2565H31.2565H31.2565H31.2565H31.2565H31.2565H31.2565H31.2565H31.2565H31.2565H31.2565H31.2565H31.2565H31.2565H31.2565H27.0831C27.0831 24.8474 27.0831 24.8474 27.0831 24.8474C26.7122 24.8473 26.4115 25.1479 26.4114 25.5188V25.5188V25.5188V25.5188V25.5188V25.5188V25.5188V25.5188V25.5188V25.5188V25.5188V25.5188V25.5188V25.5188V25.5188V25.5188V25.5188V25.5188V25.5188V25.5188V25.5188V25.5188V25.5188V25.5188V25.5188V25.5188V25.5188V25.5188V25.5188V25.5188V25.5188V25.5188V25.5188V25.5188V25.5188V25.5188V25.5188V25.5188V25.5188V25.5188V25.5188V25.5188V25.5188V25.5188V25.5188V25.5188V25.5188V25.5188V25.5188V25.5188V25.5189V25.5189V25.5189V25.5189V25.5189V25.5189V25.5189V25.5189V25.5189V25.5189V25.5189V25.5189V25.5189V25.5189V25.5189V25.5189V25.5189V25.5189V25.5189V25.5189V25.5189V25.5189V25.5189V25.5189V25.5189V25.5189V25.5189V25.5189V25.5189V25.5189V25.5189V25.5189V25.5189V25.5189V25.5189V25.5189V25.5189V25.5189V25.5189V25.5189V25.5189V25.5189V25.5189V25.5189V25.5189V25.5189V25.5189V25.5189V25.5189V25.5189V25.5189V25.5189V25.5189V25.5189V25.5189V25.5189V25.5189V25.5189V25.5189V25.5189V25.5189V25.5189V25.5189V25.5189V25.5189V25.5189V25.5189V25.5189V25.5189V25.5189V25.5189V25.5189V25.5189V25.5189V25.5189V25.5189V25.5189V25.5189V25.5189V25.5189V25.5189V25.5189V25.5189V25.5189V25.5189V25.5189V25.5189V25.5189V25.5189V25.5189V25.5189V25.5189V25.5189V25.5189V25.5189V25.5189V25.5189V25.5189V25.5189V25.5189V25.5189V25.5189V25.5189V25.5189V25.5189V25.5189V25.5189V25.5189V25.5189V25.5189V25.5189V25.5189V25.5189V25.5189V25.5189V25.5189V25.5189V25.5189V25.5189V25.5189V25.5189V25.5189V25.5189V25.5189V25.5189V25.5189V25.5189V25.5189V25.5189V25.5189V25.5189V25.5189V25.5189V25.5189V25.5189V25.5189V25.5189V25.5189V25.5189V25.5189V25.5189V25.5189V25.5189V25.5189V25.5189V25.5189V25.5189V25.5189V25.5189V25.5189V25.5189V25.5189V25.5189V25.5189V25.5189V25.5189V25.5189V25.5189V25.5189V25.5189V25.5189V25.5189V25.5189V25.5189V25.5189V25.5189V25.5189V25.5189V25.5189V25.5189V25.5189V25.5189V25.5189V25.5189V25.5189V25.5189V25.5189V25.5189V25.5189V25.5189V25.5189V25.5189V25.5189V25.519V25.519V25.519V25.519V25.519V25.519V25.519V25.519V25.519V25.519V25.519V25.519V25.519V25.519V25.519V25.519V25.519V25.519V25.519V25.519V25.519V25.519V25.519V25.519V25.519V25.519V25.519V25.519V25.519V25.519V25.519V25.519V25.519V25.519V25.519V25.519V25.519V25.519V25.519V25.519V25.519V25.519V25.519V25.519V25.519V25.519V25.519V25.519V25.519V25.519V25.519V25.519V25.519V25.519V25.519V25.519V25.519V25.519V25.519V25.519V25.519V25.519V25.519V25.519V25.519V25.519V25.519V25.519V25.519V25.519V25.519V25.519V25.519V25.519V25.519V25.519V25.519V25.519V25.519V25.519V25.519V25.519V25.519V25.519V25.519V25.519V25.519V25.519V25.519V25.519V25.519V25.519V25.519V25.519V25.519V25.519V25.519V25.519V25.519V25.519V25.519V25.519V25.519V25.519V25.519V25.519V25.519V25.519V25.519V25.519V25.519V25.519V25.519V25.519V25.519V25.519V25.519V25.519V25.519V25.519V25.519V25.519V25.519V25.519V25.519V25.519V25.519V25.519V25.519V25.519V25.519V25.519V25.519V25.519V25.519V25.519V25.519V25.519V25.519V25.519V25.519V25.519V25.519V25.519V25.519V25.519V25.519V25.519V25.519V25.519V25.519V25.519V25.519V25.519V25.519V25.519V25.519V25.519V25.519V25.519V25.519V25.519V25.519V25.519V25.519V25.519V25.519V25.519V25.519V25.519V25.519V25.519V25.519V25.519V25.519V25.519V25.519V25.519V25.519V25.519V25.519V25.519V25.519V25.519V25.5191V25.5191V25.5191V25.5191V25.5191V25.5191V25.5191V25.5191V25.5191V25.5191V25.5191V25.5191V25.5191V25.5191V25.5191V25.5191V25.5191V25.5191V25.5191V25.5191V25.5191V25.5191V25.5191V25.5191V25.5191V25.5191V25.5191V25.5191V25.5191V25.5191V25.5191V25.5191V25.5191V25.5191V25.5191V25.5191V25.5191V25.5191V25.5191V25.5191V25.5191V25.5191V25.5191V31.7791C26.4114 31.7791 26.4114 31.7792 26.4114 31.7792C26.4113 32.15 26.7119 32.4508 27.0828 32.4508H27.0828H27.0828H27.0828H27.0828H27.0828H27.0828H27.0828H27.0828H27.0828H27.0828H27.0829H27.0829H27.0829H27.0829H27.0829H27.0829H27.0829H27.0829H27.0829H27.0829H27.0829H27.0829H27.0829H27.0829H27.0829H27.0829H27.0829H27.0829H27.0829H27.0829H27.0829H27.0829H27.0829H27.0829H27.0829H27.0829H27.083H27.083H27.083H27.083H27.083H27.083H27.083H27.083H27.083H27.083H27.083H27.083H27.083H27.083H27.083H27.083H27.083H27.083H27.083H27.083H27.083H27.083H27.083H27.083H27.083H27.0831H27.0831H27.0831H27.0831H27.0831H27.0831H27.0831H31.2564C31.2564 32.4508 31.2565 32.4508 31.2565 32.4508C31.6273 32.4509 31.9281 32.1503 31.9281 31.7795V31.7794V31.7794V31.7794V31.7794V31.7794V31.7794V31.7794V31.7794V31.7794V31.7794V31.7794V31.7794V31.7794V31.7794V31.7794V31.7794V31.7794V31.7794V31.7794V31.7794V31.7794V31.7793V31.7793V31.7793V31.7793V31.7793V31.7793V31.7793V31.7793V31.7793V31.7793V31.7793V31.7793V31.7793V31.7793V31.7793V31.7793V31.7793V31.7793V31.7793V31.7793V31.7793V31.7793V31.7793V31.7793V31.7793V31.7793V31.7792V31.7792V31.7792V31.7792V31.7792V31.7792V31.7792V31.7792V31.7792V31.7792V31.7792V31.7792V31.7792V31.7792V31.7792V31.7792V31.7792V31.7792V31.7792V31.7792V31.7792V31.7792V25.5191C31.9281 25.5191 31.9281 25.5191 31.9281 25.5191C31.9282 25.1482 31.6276 24.8475 31.2568 24.8474ZM30.5847 31.1075H27.7547V26.1908H30.5847V31.1075Z" fill="white" stroke="white" stroke-width="0.3"/>
<path d="M29.1273 11.0701L29.1273 11.07C29.3281 10.7583 29.7435 10.6682 30.0552 10.8689C30.0553 10.8689 30.0553 10.8689 30.0553 10.8689L32.1418 12.2101L29.1273 11.0701ZM29.1273 11.0701C29.0575 11.1785 29.0204 11.3047 29.0204 11.4336V12.327H27.4432L23.4692 6.36597L23.4693 6.36585M29.1273 11.0701L23.4693 6.36585M23.4693 6.36585L23.4646 6.35951M23.4693 6.36585L23.4646 6.35951M23.4646 6.35951C23.2364 6.05338 22.8032 5.99026 22.497 6.21852L22.497 6.21857M23.4646 6.35951L22.497 6.21857M22.497 6.21857C22.4435 6.25845 22.396 6.30589 22.356 6.35956L22.3558 6.35944M22.497 6.21857L22.3558 6.35944M22.3558 6.35944L22.3515 6.36597M22.3558 6.35944L22.3515 6.36597M22.3515 6.36597L16.7792 14.7244L11.008 1.25886C11.0079 1.25863 11.0078 1.25839 11.0077 1.25816C10.9023 1.00587 10.6531 0.843927 10.3797 0.850174C10.1074 0.854255 9.8647 1.02251 9.76528 1.27599L3.15118 18.0654H1H0.85V18.2154V19.2588V19.4088H1H3.60833M22.3515 6.36597L3.60833 19.4088M3.60833 19.4088C3.60834 19.4088 3.60836 19.4088 3.60837 19.4088C3.88438 19.4088 4.13235 19.2399 4.23322 18.983L10.4163 3.28817M3.60833 19.4088L10.4163 3.28817M10.4163 3.28817L16.0329 16.3929C16.1786 16.7339 16.5731 16.8922 16.9141 16.7465C17.0343 16.6952 17.1368 16.6099 17.2091 16.5012M10.4163 3.28817L17.2091 16.5012M17.2091 16.5012L17.2091 16.5013L17.0843 16.418L17.2091 16.5012ZM17.2091 16.5012L22.9103 7.94937L26.5249 13.3712C26.5249 13.3712 26.5249 13.3712 26.5249 13.3712C26.6494 13.5581 26.8591 13.6703 27.0837 13.6703C27.0837 13.6703 27.0838 13.6703 27.0838 13.6703H29.0204V14.5636C29.0204 14.5636 29.0204 14.5636 29.0204 14.5636C29.0204 14.9344 29.3208 15.2352 29.6917 15.2353L17.2091 16.5012ZM32.2889 12.3383C32.2465 12.2887 32.1969 12.2455 32.1419 12.2102L32.175 12.4358M32.2889 12.3383L32.175 12.4358M32.2889 12.3383C32.2889 12.3383 32.2889 12.3382 32.2889 12.3382L32.175 12.4358M32.2889 12.3383C32.5301 12.6198 32.4975 13.0435 32.216 13.2846L32.1183 13.1708M32.175 12.4358C32.3624 12.6544 32.337 12.9835 32.1183 13.1708M32.1183 13.1708L32.2159 13.2847M32.1183 13.1708L32.2159 13.2847M32.2159 13.2847L30.1294 15.0732L30.0316 14.9594L30.1293 15.0733L32.2159 13.2847ZM30.3638 13.1036V12.6641L30.6568 12.8524L30.3638 13.1036Z" fill="white" stroke="white" stroke-width="0.3"/>
</svg>
