<svg width="55" height="31" viewBox="0 0 55 31" fill="none" xmlns="http://www.w3.org/2000/svg">
<path d="M39.678 27.7762C38.9065 27.3922 38.3337 26.7103 38.0471 25.7359C37.8574 25.0913 37.9013 24.4674 38.1501 23.9165C38.3864 23.393 38.7674 23.0226 39.1149 22.7706C39.7851 22.2847 40.5647 22.0694 40.9166 22.0035C42.8716 21.6292 44.6462 20.8058 46.4911 19.8393C46.852 19.6502 47.2184 19.454 47.5902 19.2548C49.0728 18.4607 50.6412 17.6206 52.2946 17.0045M39.678 27.7762L52.2961 17.0039C52.2956 17.0041 52.2951 17.0043 52.2946 17.0045M39.678 27.7762C39.5639 27.8224 39.4489 27.8684 39.3328 27.9145C39.1575 27.9841 38.9787 28.054 38.7974 28.125C37.8113 28.511 36.7482 28.9271 35.7286 29.478C35.7336 29.3777 35.7345 29.2789 35.7311 29.1815L35.7311 29.1815L35.7307 29.1712C35.7024 28.5126 35.4697 27.9521 35.0634 27.5143C34.6922 27.1144 34.241 26.8888 33.8954 26.7455C34.0447 26.6521 34.2054 26.5385 34.3585 26.4007L34.3588 26.4003C34.7691 26.0306 35.0831 25.5223 35.1661 24.8453L35.3107 23.6666L34.1409 23.4618C33.6396 23.3741 33.141 23.3271 32.7 23.2855L32.6544 23.2812C32.1846 23.2368 31.7788 23.1969 31.3911 23.1256C30.6503 22.9892 30.0543 22.7513 29.5181 22.2096L29.5172 22.2086C29.1168 21.805 28.6229 21.5165 28.0422 21.4465C27.4739 21.3779 26.9763 21.5374 26.5925 21.739C25.9966 22.0521 25.4751 22.5822 25.1021 22.9872L24.5563 22.1703C24.231 21.6834 23.9315 21.2561 23.6548 20.8615C23.1056 20.0779 22.6465 19.4231 22.2551 18.6858L22.2546 18.6849C21.3487 16.9816 19.8386 15.6218 18.1373 14.9496C16.4201 14.2711 14.4152 14.27 12.7173 15.4784C11.1266 16.608 9.53761 16.8671 7.84075 16.7928C6.97331 16.7548 6.09254 16.6302 5.15556 16.4868C5.05185 16.471 4.94725 16.4548 4.84187 16.4386C4.01567 16.3112 3.14116 16.1763 2.26928 16.104L39.678 27.7762ZM52.2946 17.0045C52.799 16.8155 52.8985 16.6277 52.9348 16.5462C53.0022 16.3948 53.0339 16.1496 52.9995 15.6506C52.9934 15.5624 52.984 15.4573 52.9734 15.3402C52.937 14.9358 52.8877 14.389 52.9218 13.9092C52.9643 13.3114 53.1338 12.6414 53.6189 12.048M52.2946 17.0045L53.6189 12.048M53.6189 12.048C52.6145 11.7294 51.5581 11.2928 50.5666 10.8829C50.0423 10.6662 49.5362 10.457 49.0655 10.2767C47.5784 9.70718 46.2701 9.3438 45.0526 9.40421L45.0509 9.40429C42.6209 9.52163 40.8979 8.63 39.5596 7.48884C38.9111 6.93587 38.3508 6.32314 37.8584 5.77065C37.7848 5.68813 37.7132 5.60744 37.6431 5.52852C37.2262 5.05897 36.8649 4.65211 36.4899 4.29781C36.4894 4.29734 36.4889 4.29686 36.4884 4.29638L37.3465 3.38748C36.9208 2.98791 36.6361 2.45512 36.3558 1.93061C35.7251 0.750422 35.1167 -0.387899 32.9756 0.127317L53.6189 12.048ZM28.6297 23.0889C29.7955 24.2668 31.1686 24.3965 32.5655 24.5283C32.6065 24.5322 32.6476 24.5361 32.6887 24.54C32.6954 24.5337 32.6975 24.531 32.6966 24.532C32.6958 24.5331 32.6936 24.5359 32.691 24.5402C33.1024 24.5793 33.5155 24.6214 33.9254 24.6931C33.9192 24.7443 33.9105 24.7932 33.8997 24.84L33.7457 25.7201L33.7457 25.7203L33.71 25.9244C33.4758 25.8834 33.2381 25.8531 32.9875 25.8261C32.9273 25.8584 32.8664 25.89 32.8057 25.9215C32.2795 26.1947 31.7636 26.4624 31.745 27.1598M28.6297 23.0889L35.6974 30.9399C35.3264 31.174 34.2212 30.696 34.3916 29.9912C34.4643 29.693 34.4894 29.4417 34.4818 29.2248C34.4395 28.2396 33.6603 27.9717 32.8841 27.7049C32.4645 27.5606 32.0458 27.4167 31.745 27.1598M28.6297 23.0889C27.6397 22.0909 26.6673 23.1234 25.8402 24.0327C25.8326 24.0411 25.825 24.0495 25.8174 24.0579L28.6297 23.0889ZM31.745 27.1598L32.9938 27.1931L31.745 27.1598ZM53.7943 12.1136C53.7943 12.1137 53.7935 12.1131 53.7921 12.1119C53.7935 12.1129 53.7942 12.1135 53.7943 12.1136ZM23.4003 24.1092L24.0426 24.1694C23.4325 24.8491 22.8823 25.4198 22.2324 25.8351C21.7204 26.1622 21.1451 26.3877 20.4145 26.3916C20.426 26.3644 20.4373 26.3374 20.4484 26.3107L20.4686 26.2626C20.7021 25.7057 20.8833 25.2848 21.1123 24.9376C21.3239 24.617 21.5455 24.4102 21.8306 24.2784C22.1258 24.142 22.6012 24.0344 23.4003 24.1092ZM35.0302 29.8828C35.0325 29.8814 35.0348 29.88 35.037 29.8786L35.0302 29.8828Z" stroke="white" strokeWidth="2.5"/>
</svg>
