<svg width="31" height="34" viewBox="0 0 31 34" fill="none" xmlns="http://www.w3.org/2000/svg">
<mask id="path-1-outside-1_2_19" maskUnits="userSpaceOnUse" x="0" y="0" width="31" height="34" fill="black">
<rect fill="white" width="31" height="34"/>
<path d="M1.08208 19.1523L1.34675 18.504C1.48788 18.1584 1.73063 17.8787 2.03152 17.6916C1.80654 17.1593 1.90841 16.5194 2.33919 16.086L2.65381 15.7694V14.1222C2.65381 13.3185 2.72853 12.5151 2.87426 11.7311L2.78158 11.6378C2.21576 11.0684 2.21576 10.1418 2.78158 9.5724C3.02098 9.33151 3.32398 9.19376 3.63667 9.15669C4.23293 7.71481 5.07597 6.40675 6.14561 5.26389C6.14561 5.26189 6.14549 5.25995 6.14549 5.25801C6.14549 4.86793 6.29649 4.50123 6.57067 4.2254C6.84486 3.94945 7.20936 3.7975 7.59696 3.7975C7.65144 3.7975 7.70535 3.80082 7.75871 3.80676C9.0644 2.81283 10.5226 2.08911 12.0958 1.65522C12.1494 1.57365 12.2115 1.4969 12.2818 1.42614C12.7885 0.91637 13.579 0.864492 14.1452 1.26764C15.1096 1.16594 16.1025 1.17426 17.0647 1.29176C17.6329 0.86268 18.4443 0.906432 18.9608 1.42621C19.0549 1.5209 19.1341 1.62647 19.1981 1.73985C20.6779 2.18662 22.0521 2.89309 23.2849 3.83969C23.3974 3.81201 23.5139 3.79763 23.6327 3.79763C24.0203 3.79763 24.3848 3.94951 24.6589 4.22534C24.9331 4.50123 25.0841 4.86793 25.0841 5.25801C25.0841 5.33789 25.0774 5.41664 25.065 5.49396C26.0343 6.58089 26.806 7.80876 27.3614 9.14963C27.762 9.12525 28.1708 9.26514 28.4762 9.57246C29.0421 10.1419 29.0421 11.0685 28.4762 11.6379L28.1655 11.9506C28.2854 12.6636 28.3467 13.3936 28.3467 14.1223V14.1891C28.9278 14.285 29.4239 14.6743 29.6532 15.2358L29.918 15.8841C30.0564 16.2233 30.018 16.6078 29.815 16.9124C29.6121 17.2171 29.2734 17.399 28.9089 17.399H26.1569C25.8996 17.399 25.691 17.1891 25.691 16.9302C25.691 16.6713 25.8996 16.4614 26.1569 16.4614H28.9089C28.9827 16.4614 29.0234 16.417 29.041 16.3905C29.0586 16.364 29.0841 16.3092 29.056 16.2405L28.7913 15.5922C28.6699 15.2951 28.3852 15.1031 28.066 15.1031H15.8933C15.4932 15.1031 15.117 15.2599 14.8341 15.5445L12.1613 18.234C12.074 18.3219 11.9555 18.3713 11.8319 18.3713H2.93389C2.61461 18.3713 2.32993 18.5633 2.20862 18.8605L1.94388 19.5087C1.9158 19.5775 1.94127 19.6322 1.95891 19.6587C1.97655 19.6852 2.01718 19.7296 2.09109 19.7296H12.0295C12.4296 19.7296 12.8057 19.5729 13.0887 19.2882L15.7615 16.5987C15.8488 16.5108 15.9673 16.4614 16.0909 16.4614H24.1076C24.3649 16.4614 24.5735 16.6713 24.5735 16.9302C24.5735 17.1891 24.3649 17.399 24.1076 17.399H21.7976V25.5519C21.7976 27.5678 20.9261 29.4511 19.3992 30.753C19.4198 30.8615 19.4245 30.974 19.4114 31.0872C19.373 31.4209 19.1887 31.7134 18.9057 31.8896C17.74 32.616 16.3965 33 15.0204 33C13.6449 33 12.3016 32.6162 11.1355 31.8902C10.8524 31.7139 10.6681 31.4215 10.6295 31.0878C10.6164 30.9745 10.6211 30.862 10.6417 30.7533C9.11471 29.4515 8.24303 27.5673 8.24303 25.552V24.5829H7.23259C6.63323 24.5829 6.14555 24.0921 6.14555 23.4891V20.6672H2.09116C1.72666 20.6672 1.38794 20.4853 1.18501 20.1807C0.982008 19.8758 0.943558 19.4914 1.08208 19.1523ZM3.58555 14.1222V14.8318L4.77073 13.6393L3.68798 12.5498C3.6204 13.0696 3.58555 13.5958 3.58555 14.1222ZM3.44045 10.9749L5.42954 12.9764L6.1645 12.2368L4.17541 10.2354C3.97272 10.0314 3.64301 10.0315 3.44045 10.2354C3.23783 10.4393 3.23783 10.771 3.44045 10.9749ZM4.5632 9.35977C4.65948 9.41883 4.75104 9.48877 4.83421 9.57246L6.8233 11.5739L7.42465 10.9688C7.60659 10.7858 7.90158 10.7858 8.08346 10.9688C8.26539 11.1519 8.26539 11.4487 8.08346 11.6317L2.99799 16.7489C2.89985 16.8476 2.84581 16.9789 2.84581 17.1186C2.84581 17.234 2.8832 17.3433 2.95134 17.4336H3.78743L10.7159 10.462L9.98099 9.72247L9.53251 10.1737C9.44157 10.2652 9.32231 10.3111 9.2031 10.3111C9.0839 10.3111 8.96464 10.2653 8.8737 10.1737C8.69176 9.99067 8.69176 9.69384 8.8737 9.51084L9.32218 9.05956L6.57074 6.29075C6.55428 6.27418 6.53825 6.25718 6.52266 6.23993C5.7095 7.1756 5.05268 8.2219 4.5632 9.35977ZM11.3292 17.4336L8.21713 14.3022L7.48217 15.0417L9.85924 17.4336H11.3292ZM11.3747 11.125L8.87593 13.6393L11.0633 15.8403L13.562 13.326L11.3747 11.125ZM6.8233 15.7047L5.10504 17.4336H8.54156L6.8233 15.7047ZM7.0773 5.25801C7.0773 5.39758 7.1314 5.5289 7.2296 5.62778L14.2206 12.6629L14.9555 11.9234L7.9645 4.88831C7.8663 4.78949 7.73579 4.73505 7.59702 4.73505C7.45826 4.73505 7.32781 4.78949 7.22954 4.88837C7.13134 4.98712 7.0773 5.11838 7.0773 5.25801ZM15.6146 11.2607L17.8087 9.05288L15.6213 6.8519L13.4273 9.05963L15.6146 11.2607ZM21.8876 14.1654L22.3743 13.6469L19.8613 11.1182L16.8329 14.1654H21.8876ZM23.0332 12.9839L23.7681 12.2444L17.0151 5.44939L16.2801 6.18893L23.0332 12.9839ZM18.9609 3.49155L17.674 4.78649L19.8613 6.98747L22.4493 4.38334C21.4968 3.69338 20.4582 3.15372 19.3519 2.77408C19.2932 3.04378 19.1596 3.29161 18.9609 3.49155ZM12.2818 3.49155C12.0646 3.27298 11.9251 2.99728 11.8763 2.69827C10.7374 3.06303 9.66773 3.59556 8.68493 4.28734L11.3748 6.99415L13.5687 4.78649L12.2818 3.49155ZM12.9406 2.08911C12.8425 2.18787 12.7884 2.31919 12.7884 2.45888C12.7884 2.59851 12.8425 2.72983 12.9406 2.82865L14.2276 4.12358L14.9625 3.38405L13.6756 2.08917C13.473 1.88529 13.1433 1.88523 12.9406 2.08911ZM15.0473 2.14343L15.6213 2.72108L16.1845 2.1543C15.8063 2.13293 15.426 2.12936 15.0473 2.14343ZM18.302 2.08911C18.0994 1.88523 17.7697 1.88529 17.5671 2.08911L12.0336 7.65712L12.7685 8.39666L18.302 2.82858C18.4002 2.72983 18.4542 2.59851 18.4542 2.45888C18.4543 2.31919 18.4002 2.18793 18.302 2.08911ZM24.0001 4.88824C23.9019 4.78949 23.7714 4.73511 23.6327 4.73511C23.4938 4.73511 23.3633 4.78949 23.2652 4.88824L20.5201 7.65037L21.2551 8.38991L24.0001 5.62778C24.0983 5.52902 24.1523 5.39771 24.1523 5.25801C24.1523 5.11832 24.0983 4.987 24.0001 4.88824ZM26.4988 9.50396C26.0254 8.36297 25.3828 7.31011 24.5847 6.36544L21.914 9.05281L24.4269 11.5814L26.4988 9.50396ZM27.8174 10.2354C27.6148 10.0315 27.285 10.0315 27.0824 10.2354L23.1767 14.1654H24.6467L27.8174 10.9749C28.02 10.771 28.02 10.4393 27.8174 10.2354ZM27.4149 14.1654C27.4149 13.717 27.3899 13.2248 27.3408 12.7803L25.9642 14.1654H27.4149ZM15.485 14.1959L19.2025 10.4553L18.4675 9.71578L11.7221 16.5032L12.1429 16.9266L14.1753 14.8814C14.5353 14.5193 14.9932 14.2802 15.485 14.1959ZM20.8658 25.5518V17.3988H19.9226V21.4821C19.9226 21.741 19.714 21.9509 19.4567 21.9509C19.1994 21.9509 18.9908 21.741 18.9908 21.4821V17.3988H16.2838L13.7474 19.951C13.2886 20.4128 12.6784 20.667 12.0295 20.667H11.8508V23.4889C11.8508 23.9923 11.5106 24.4162 11.0498 24.543V25.5518C11.0498 26.7483 11.5915 27.8874 12.5096 28.6444C12.8236 28.4452 13.2253 28.4172 13.5715 28.5854C14.0258 28.8061 14.5134 28.9179 15.0209 28.9179C15.5283 28.9179 16.0157 28.8061 16.4695 28.5856C16.8153 28.4176 17.2164 28.4452 17.5302 28.6435C18.4601 27.8797 18.9908 26.763 18.9908 25.5517V23.5442C18.9908 23.2853 19.1994 23.0754 19.4567 23.0754C19.714 23.0754 19.9226 23.2853 19.9226 23.5442V25.5518C19.9226 26.9843 19.2889 28.3585 18.2131 29.2916L18.8814 29.9639C20.1461 28.8439 20.8658 27.2525 20.8658 25.5518ZM11.555 30.9795C11.5582 31.0074 11.5717 31.0592 11.6258 31.0928C12.6445 31.7271 13.8183 32.0624 15.0204 32.0624C16.223 32.0624 17.3969 31.727 18.4152 31.0925C18.4692 31.0588 18.4827 31.007 18.486 30.9792C18.4893 30.95 18.4878 30.8937 18.4399 30.8455L17.0613 29.4583C17.0316 29.4284 16.9912 29.4127 16.9494 29.4127C16.9243 29.4127 16.8988 29.4184 16.8748 29.43C16.2936 29.7124 15.6699 29.8556 15.021 29.8556C14.3722 29.8556 13.7483 29.7123 13.1666 29.4298C13.1028 29.3989 13.0279 29.4102 12.9802 29.4581L11.6012 30.8458C11.5532 30.894 11.5517 30.9503 11.555 30.9795ZM9.17478 25.5518C9.17478 27.2521 9.89489 28.8441 11.1596 29.9642L11.8277 29.2919C10.7506 28.3585 10.1181 26.989 10.1181 25.5518V24.5827H9.17484L9.17478 25.5518ZM7.0773 23.4889C7.0773 23.575 7.14699 23.6451 7.23259 23.6451H10.7638C10.8494 23.6451 10.9191 23.575 10.9191 23.4889V20.667H7.0773V23.4889Z"/>
</mask>
<path d="M1.08208 19.1523L1.34675 18.504C1.48788 18.1584 1.73063 17.8787 2.03152 17.6916C1.80654 17.1593 1.90841 16.5194 2.33919 16.086L2.65381 15.7694V14.1222C2.65381 13.3185 2.72853 12.5151 2.87426 11.7311L2.78158 11.6378C2.21576 11.0684 2.21576 10.1418 2.78158 9.5724C3.02098 9.33151 3.32398 9.19376 3.63667 9.15669C4.23293 7.71481 5.07597 6.40675 6.14561 5.26389C6.14561 5.26189 6.14549 5.25995 6.14549 5.25801C6.14549 4.86793 6.29649 4.50123 6.57067 4.2254C6.84486 3.94945 7.20936 3.7975 7.59696 3.7975C7.65144 3.7975 7.70535 3.80082 7.75871 3.80676C9.0644 2.81283 10.5226 2.08911 12.0958 1.65522C12.1494 1.57365 12.2115 1.4969 12.2818 1.42614C12.7885 0.91637 13.579 0.864492 14.1452 1.26764C15.1096 1.16594 16.1025 1.17426 17.0647 1.29176C17.6329 0.86268 18.4443 0.906432 18.9608 1.42621C19.0549 1.5209 19.1341 1.62647 19.1981 1.73985C20.6779 2.18662 22.0521 2.89309 23.2849 3.83969C23.3974 3.81201 23.5139 3.79763 23.6327 3.79763C24.0203 3.79763 24.3848 3.94951 24.6589 4.22534C24.9331 4.50123 25.0841 4.86793 25.0841 5.25801C25.0841 5.33789 25.0774 5.41664 25.065 5.49396C26.0343 6.58089 26.806 7.80876 27.3614 9.14963C27.762 9.12525 28.1708 9.26514 28.4762 9.57246C29.0421 10.1419 29.0421 11.0685 28.4762 11.6379L28.1655 11.9506C28.2854 12.6636 28.3467 13.3936 28.3467 14.1223V14.1891C28.9278 14.285 29.4239 14.6743 29.6532 15.2358L29.918 15.8841C30.0564 16.2233 30.018 16.6078 29.815 16.9124C29.6121 17.2171 29.2734 17.399 28.9089 17.399H26.1569C25.8996 17.399 25.691 17.1891 25.691 16.9302C25.691 16.6713 25.8996 16.4614 26.1569 16.4614H28.9089C28.9827 16.4614 29.0234 16.417 29.041 16.3905C29.0586 16.364 29.0841 16.3092 29.056 16.2405L28.7913 15.5922C28.6699 15.2951 28.3852 15.1031 28.066 15.1031H15.8933C15.4932 15.1031 15.117 15.2599 14.8341 15.5445L12.1613 18.234C12.074 18.3219 11.9555 18.3713 11.8319 18.3713H2.93389C2.61461 18.3713 2.32993 18.5633 2.20862 18.8605L1.94388 19.5087C1.9158 19.5775 1.94127 19.6322 1.95891 19.6587C1.97655 19.6852 2.01718 19.7296 2.09109 19.7296H12.0295C12.4296 19.7296 12.8057 19.5729 13.0887 19.2882L15.7615 16.5987C15.8488 16.5108 15.9673 16.4614 16.0909 16.4614H24.1076C24.3649 16.4614 24.5735 16.6713 24.5735 16.9302C24.5735 17.1891 24.3649 17.399 24.1076 17.399H21.7976V25.5519C21.7976 27.5678 20.9261 29.4511 19.3992 30.753C19.4198 30.8615 19.4245 30.974 19.4114 31.0872C19.373 31.4209 19.1887 31.7134 18.9057 31.8896C17.74 32.616 16.3965 33 15.0204 33C13.6449 33 12.3016 32.6162 11.1355 31.8902C10.8524 31.7139 10.6681 31.4215 10.6295 31.0878C10.6164 30.9745 10.6211 30.862 10.6417 30.7533C9.11471 29.4515 8.24303 27.5673 8.24303 25.552V24.5829H7.23259C6.63323 24.5829 6.14555 24.0921 6.14555 23.4891V20.6672H2.09116C1.72666 20.6672 1.38794 20.4853 1.18501 20.1807C0.982008 19.8758 0.943558 19.4914 1.08208 19.1523ZM3.58555 14.1222V14.8318L4.77073 13.6393L3.68798 12.5498C3.6204 13.0696 3.58555 13.5958 3.58555 14.1222ZM3.44045 10.9749L5.42954 12.9764L6.1645 12.2368L4.17541 10.2354C3.97272 10.0314 3.64301 10.0315 3.44045 10.2354C3.23783 10.4393 3.23783 10.771 3.44045 10.9749ZM4.5632 9.35977C4.65948 9.41883 4.75104 9.48877 4.83421 9.57246L6.8233 11.5739L7.42465 10.9688C7.60659 10.7858 7.90158 10.7858 8.08346 10.9688C8.26539 11.1519 8.26539 11.4487 8.08346 11.6317L2.99799 16.7489C2.89985 16.8476 2.84581 16.9789 2.84581 17.1186C2.84581 17.234 2.8832 17.3433 2.95134 17.4336H3.78743L10.7159 10.462L9.98099 9.72247L9.53251 10.1737C9.44157 10.2652 9.32231 10.3111 9.2031 10.3111C9.0839 10.3111 8.96464 10.2653 8.8737 10.1737C8.69176 9.99067 8.69176 9.69384 8.8737 9.51084L9.32218 9.05956L6.57074 6.29075C6.55428 6.27418 6.53825 6.25718 6.52266 6.23993C5.7095 7.1756 5.05268 8.2219 4.5632 9.35977ZM11.3292 17.4336L8.21713 14.3022L7.48217 15.0417L9.85924 17.4336H11.3292ZM11.3747 11.125L8.87593 13.6393L11.0633 15.8403L13.562 13.326L11.3747 11.125ZM6.8233 15.7047L5.10504 17.4336H8.54156L6.8233 15.7047ZM7.0773 5.25801C7.0773 5.39758 7.1314 5.5289 7.2296 5.62778L14.2206 12.6629L14.9555 11.9234L7.9645 4.88831C7.8663 4.78949 7.73579 4.73505 7.59702 4.73505C7.45826 4.73505 7.32781 4.78949 7.22954 4.88837C7.13134 4.98712 7.0773 5.11838 7.0773 5.25801ZM15.6146 11.2607L17.8087 9.05288L15.6213 6.8519L13.4273 9.05963L15.6146 11.2607ZM21.8876 14.1654L22.3743 13.6469L19.8613 11.1182L16.8329 14.1654H21.8876ZM23.0332 12.9839L23.7681 12.2444L17.0151 5.44939L16.2801 6.18893L23.0332 12.9839ZM18.9609 3.49155L17.674 4.78649L19.8613 6.98747L22.4493 4.38334C21.4968 3.69338 20.4582 3.15372 19.3519 2.77408C19.2932 3.04378 19.1596 3.29161 18.9609 3.49155ZM12.2818 3.49155C12.0646 3.27298 11.9251 2.99728 11.8763 2.69827C10.7374 3.06303 9.66773 3.59556 8.68493 4.28734L11.3748 6.99415L13.5687 4.78649L12.2818 3.49155ZM12.9406 2.08911C12.8425 2.18787 12.7884 2.31919 12.7884 2.45888C12.7884 2.59851 12.8425 2.72983 12.9406 2.82865L14.2276 4.12358L14.9625 3.38405L13.6756 2.08917C13.473 1.88529 13.1433 1.88523 12.9406 2.08911ZM15.0473 2.14343L15.6213 2.72108L16.1845 2.1543C15.8063 2.13293 15.426 2.12936 15.0473 2.14343ZM18.302 2.08911C18.0994 1.88523 17.7697 1.88529 17.5671 2.08911L12.0336 7.65712L12.7685 8.39666L18.302 2.82858C18.4002 2.72983 18.4542 2.59851 18.4542 2.45888C18.4543 2.31919 18.4002 2.18793 18.302 2.08911ZM24.0001 4.88824C23.9019 4.78949 23.7714 4.73511 23.6327 4.73511C23.4938 4.73511 23.3633 4.78949 23.2652 4.88824L20.5201 7.65037L21.2551 8.38991L24.0001 5.62778C24.0983 5.52902 24.1523 5.39771 24.1523 5.25801C24.1523 5.11832 24.0983 4.987 24.0001 4.88824ZM26.4988 9.50396C26.0254 8.36297 25.3828 7.31011 24.5847 6.36544L21.914 9.05281L24.4269 11.5814L26.4988 9.50396ZM27.8174 10.2354C27.6148 10.0315 27.285 10.0315 27.0824 10.2354L23.1767 14.1654H24.6467L27.8174 10.9749C28.02 10.771 28.02 10.4393 27.8174 10.2354ZM27.4149 14.1654C27.4149 13.717 27.3899 13.2248 27.3408 12.7803L25.9642 14.1654H27.4149ZM15.485 14.1959L19.2025 10.4553L18.4675 9.71578L11.7221 16.5032L12.1429 16.9266L14.1753 14.8814C14.5353 14.5193 14.9932 14.2802 15.485 14.1959ZM20.8658 25.5518V17.3988H19.9226V21.4821C19.9226 21.741 19.714 21.9509 19.4567 21.9509C19.1994 21.9509 18.9908 21.741 18.9908 21.4821V17.3988H16.2838L13.7474 19.951C13.2886 20.4128 12.6784 20.667 12.0295 20.667H11.8508V23.4889C11.8508 23.9923 11.5106 24.4162 11.0498 24.543V25.5518C11.0498 26.7483 11.5915 27.8874 12.5096 28.6444C12.8236 28.4452 13.2253 28.4172 13.5715 28.5854C14.0258 28.8061 14.5134 28.9179 15.0209 28.9179C15.5283 28.9179 16.0157 28.8061 16.4695 28.5856C16.8153 28.4176 17.2164 28.4452 17.5302 28.6435C18.4601 27.8797 18.9908 26.763 18.9908 25.5517V23.5442C18.9908 23.2853 19.1994 23.0754 19.4567 23.0754C19.714 23.0754 19.9226 23.2853 19.9226 23.5442V25.5518C19.9226 26.9843 19.2889 28.3585 18.2131 29.2916L18.8814 29.9639C20.1461 28.8439 20.8658 27.2525 20.8658 25.5518ZM11.555 30.9795C11.5582 31.0074 11.5717 31.0592 11.6258 31.0928C12.6445 31.7271 13.8183 32.0624 15.0204 32.0624C16.223 32.0624 17.3969 31.727 18.4152 31.0925C18.4692 31.0588 18.4827 31.007 18.486 30.9792C18.4893 30.95 18.4878 30.8937 18.4399 30.8455L17.0613 29.4583C17.0316 29.4284 16.9912 29.4127 16.9494 29.4127C16.9243 29.4127 16.8988 29.4184 16.8748 29.43C16.2936 29.7124 15.6699 29.8556 15.021 29.8556C14.3722 29.8556 13.7483 29.7123 13.1666 29.4298C13.1028 29.3989 13.0279 29.4102 12.9802 29.4581L11.6012 30.8458C11.5532 30.894 11.5517 30.9503 11.555 30.9795ZM9.17478 25.5518C9.17478 27.2521 9.89489 28.8441 11.1596 29.9642L11.8277 29.2919C10.7506 28.3585 10.1181 26.989 10.1181 25.5518V24.5827H9.17484L9.17478 25.5518ZM7.0773 23.4889C7.0773 23.575 7.14699 23.6451 7.23259 23.6451H10.7638C10.8494 23.6451 10.9191 23.575 10.9191 23.4889V20.667H7.0773V23.4889Z" fill="white"/>
<path d="M1.08208 19.1523L1.34675 18.504C1.48788 18.1584 1.73063 17.8787 2.03152 17.6916C1.80654 17.1593 1.90841 16.5194 2.33919 16.086L2.65381 15.7694V14.1222C2.65381 13.3185 2.72853 12.5151 2.87426 11.7311L2.78158 11.6378C2.21576 11.0684 2.21576 10.1418 2.78158 9.5724C3.02098 9.33151 3.32398 9.19376 3.63667 9.15669C4.23293 7.71481 5.07597 6.40675 6.14561 5.26389C6.14561 5.26189 6.14549 5.25995 6.14549 5.25801C6.14549 4.86793 6.29649 4.50123 6.57067 4.2254C6.84486 3.94945 7.20936 3.7975 7.59696 3.7975C7.65144 3.7975 7.70535 3.80082 7.75871 3.80676C9.0644 2.81283 10.5226 2.08911 12.0958 1.65522C12.1494 1.57365 12.2115 1.4969 12.2818 1.42614C12.7885 0.91637 13.579 0.864492 14.1452 1.26764C15.1096 1.16594 16.1025 1.17426 17.0647 1.29176C17.6329 0.86268 18.4443 0.906432 18.9608 1.42621C19.0549 1.5209 19.1341 1.62647 19.1981 1.73985C20.6779 2.18662 22.0521 2.89309 23.2849 3.83969C23.3974 3.81201 23.5139 3.79763 23.6327 3.79763C24.0203 3.79763 24.3848 3.94951 24.6589 4.22534C24.9331 4.50123 25.0841 4.86793 25.0841 5.25801C25.0841 5.33789 25.0774 5.41664 25.065 5.49396C26.0343 6.58089 26.806 7.80876 27.3614 9.14963C27.762 9.12525 28.1708 9.26514 28.4762 9.57246C29.0421 10.1419 29.0421 11.0685 28.4762 11.6379L28.1655 11.9506C28.2854 12.6636 28.3467 13.3936 28.3467 14.1223V14.1891C28.9278 14.285 29.4239 14.6743 29.6532 15.2358L29.918 15.8841C30.0564 16.2233 30.018 16.6078 29.815 16.9124C29.6121 17.2171 29.2734 17.399 28.9089 17.399H26.1569C25.8996 17.399 25.691 17.1891 25.691 16.9302C25.691 16.6713 25.8996 16.4614 26.1569 16.4614H28.9089C28.9827 16.4614 29.0234 16.417 29.041 16.3905C29.0586 16.364 29.0841 16.3092 29.056 16.2405L28.7913 15.5922C28.6699 15.2951 28.3852 15.1031 28.066 15.1031H15.8933C15.4932 15.1031 15.117 15.2599 14.8341 15.5445L12.1613 18.234C12.074 18.3219 11.9555 18.3713 11.8319 18.3713H2.93389C2.61461 18.3713 2.32993 18.5633 2.20862 18.8605L1.94388 19.5087C1.9158 19.5775 1.94127 19.6322 1.95891 19.6587C1.97655 19.6852 2.01718 19.7296 2.09109 19.7296H12.0295C12.4296 19.7296 12.8057 19.5729 13.0887 19.2882L15.7615 16.5987C15.8488 16.5108 15.9673 16.4614 16.0909 16.4614H24.1076C24.3649 16.4614 24.5735 16.6713 24.5735 16.9302C24.5735 17.1891 24.3649 17.399 24.1076 17.399H21.7976V25.5519C21.7976 27.5678 20.9261 29.4511 19.3992 30.753C19.4198 30.8615 19.4245 30.974 19.4114 31.0872C19.373 31.4209 19.1887 31.7134 18.9057 31.8896C17.74 32.616 16.3965 33 15.0204 33C13.6449 33 12.3016 32.6162 11.1355 31.8902C10.8524 31.7139 10.6681 31.4215 10.6295 31.0878C10.6164 30.9745 10.6211 30.862 10.6417 30.7533C9.11471 29.4515 8.24303 27.5673 8.24303 25.552V24.5829H7.23259C6.63323 24.5829 6.14555 24.0921 6.14555 23.4891V20.6672H2.09116C1.72666 20.6672 1.38794 20.4853 1.18501 20.1807C0.982008 19.8758 0.943558 19.4914 1.08208 19.1523ZM3.58555 14.1222V14.8318L4.77073 13.6393L3.68798 12.5498C3.6204 13.0696 3.58555 13.5958 3.58555 14.1222ZM3.44045 10.9749L5.42954 12.9764L6.1645 12.2368L4.17541 10.2354C3.97272 10.0314 3.64301 10.0315 3.44045 10.2354C3.23783 10.4393 3.23783 10.771 3.44045 10.9749ZM4.5632 9.35977C4.65948 9.41883 4.75104 9.48877 4.83421 9.57246L6.8233 11.5739L7.42465 10.9688C7.60659 10.7858 7.90158 10.7858 8.08346 10.9688C8.26539 11.1519 8.26539 11.4487 8.08346 11.6317L2.99799 16.7489C2.89985 16.8476 2.84581 16.9789 2.84581 17.1186C2.84581 17.234 2.8832 17.3433 2.95134 17.4336H3.78743L10.7159 10.462L9.98099 9.72247L9.53251 10.1737C9.44157 10.2652 9.32231 10.3111 9.2031 10.3111C9.0839 10.3111 8.96464 10.2653 8.8737 10.1737C8.69176 9.99067 8.69176 9.69384 8.8737 9.51084L9.32218 9.05956L6.57074 6.29075C6.55428 6.27418 6.53825 6.25718 6.52266 6.23993C5.7095 7.1756 5.05268 8.2219 4.5632 9.35977ZM11.3292 17.4336L8.21713 14.3022L7.48217 15.0417L9.85924 17.4336H11.3292ZM11.3747 11.125L8.87593 13.6393L11.0633 15.8403L13.562 13.326L11.3747 11.125ZM6.8233 15.7047L5.10504 17.4336H8.54156L6.8233 15.7047ZM7.0773 5.25801C7.0773 5.39758 7.1314 5.5289 7.2296 5.62778L14.2206 12.6629L14.9555 11.9234L7.9645 4.88831C7.8663 4.78949 7.73579 4.73505 7.59702 4.73505C7.45826 4.73505 7.32781 4.78949 7.22954 4.88837C7.13134 4.98712 7.0773 5.11838 7.0773 5.25801ZM15.6146 11.2607L17.8087 9.05288L15.6213 6.8519L13.4273 9.05963L15.6146 11.2607ZM21.8876 14.1654L22.3743 13.6469L19.8613 11.1182L16.8329 14.1654H21.8876ZM23.0332 12.9839L23.7681 12.2444L17.0151 5.44939L16.2801 6.18893L23.0332 12.9839ZM18.9609 3.49155L17.674 4.78649L19.8613 6.98747L22.4493 4.38334C21.4968 3.69338 20.4582 3.15372 19.3519 2.77408C19.2932 3.04378 19.1596 3.29161 18.9609 3.49155ZM12.2818 3.49155C12.0646 3.27298 11.9251 2.99728 11.8763 2.69827C10.7374 3.06303 9.66773 3.59556 8.68493 4.28734L11.3748 6.99415L13.5687 4.78649L12.2818 3.49155ZM12.9406 2.08911C12.8425 2.18787 12.7884 2.31919 12.7884 2.45888C12.7884 2.59851 12.8425 2.72983 12.9406 2.82865L14.2276 4.12358L14.9625 3.38405L13.6756 2.08917C13.473 1.88529 13.1433 1.88523 12.9406 2.08911ZM15.0473 2.14343L15.6213 2.72108L16.1845 2.1543C15.8063 2.13293 15.426 2.12936 15.0473 2.14343ZM18.302 2.08911C18.0994 1.88523 17.7697 1.88529 17.5671 2.08911L12.0336 7.65712L12.7685 8.39666L18.302 2.82858C18.4002 2.72983 18.4542 2.59851 18.4542 2.45888C18.4543 2.31919 18.4002 2.18793 18.302 2.08911ZM24.0001 4.88824C23.9019 4.78949 23.7714 4.73511 23.6327 4.73511C23.4938 4.73511 23.3633 4.78949 23.2652 4.88824L20.5201 7.65037L21.2551 8.38991L24.0001 5.62778C24.0983 5.52902 24.1523 5.39771 24.1523 5.25801C24.1523 5.11832 24.0983 4.987 24.0001 4.88824ZM26.4988 9.50396C26.0254 8.36297 25.3828 7.31011 24.5847 6.36544L21.914 9.05281L24.4269 11.5814L26.4988 9.50396ZM27.8174 10.2354C27.6148 10.0315 27.285 10.0315 27.0824 10.2354L23.1767 14.1654H24.6467L27.8174 10.9749C28.02 10.771 28.02 10.4393 27.8174 10.2354ZM27.4149 14.1654C27.4149 13.717 27.3899 13.2248 27.3408 12.7803L25.9642 14.1654H27.4149ZM15.485 14.1959L19.2025 10.4553L18.4675 9.71578L11.7221 16.5032L12.1429 16.9266L14.1753 14.8814C14.5353 14.5193 14.9932 14.2802 15.485 14.1959ZM20.8658 25.5518V17.3988H19.9226V21.4821C19.9226 21.741 19.714 21.9509 19.4567 21.9509C19.1994 21.9509 18.9908 21.741 18.9908 21.4821V17.3988H16.2838L13.7474 19.951C13.2886 20.4128 12.6784 20.667 12.0295 20.667H11.8508V23.4889C11.8508 23.9923 11.5106 24.4162 11.0498 24.543V25.5518C11.0498 26.7483 11.5915 27.8874 12.5096 28.6444C12.8236 28.4452 13.2253 28.4172 13.5715 28.5854C14.0258 28.8061 14.5134 28.9179 15.0209 28.9179C15.5283 28.9179 16.0157 28.8061 16.4695 28.5856C16.8153 28.4176 17.2164 28.4452 17.5302 28.6435C18.4601 27.8797 18.9908 26.763 18.9908 25.5517V23.5442C18.9908 23.2853 19.1994 23.0754 19.4567 23.0754C19.714 23.0754 19.9226 23.2853 19.9226 23.5442V25.5518C19.9226 26.9843 19.2889 28.3585 18.2131 29.2916L18.8814 29.9639C20.1461 28.8439 20.8658 27.2525 20.8658 25.5518ZM11.555 30.9795C11.5582 31.0074 11.5717 31.0592 11.6258 31.0928C12.6445 31.7271 13.8183 32.0624 15.0204 32.0624C16.223 32.0624 17.3969 31.727 18.4152 31.0925C18.4692 31.0588 18.4827 31.007 18.486 30.9792C18.4893 30.95 18.4878 30.8937 18.4399 30.8455L17.0613 29.4583C17.0316 29.4284 16.9912 29.4127 16.9494 29.4127C16.9243 29.4127 16.8988 29.4184 16.8748 29.43C16.2936 29.7124 15.6699 29.8556 15.021 29.8556C14.3722 29.8556 13.7483 29.7123 13.1666 29.4298C13.1028 29.3989 13.0279 29.4102 12.9802 29.4581L11.6012 30.8458C11.5532 30.894 11.5517 30.9503 11.555 30.9795ZM9.17478 25.5518C9.17478 27.2521 9.89489 28.8441 11.1596 29.9642L11.8277 29.2919C10.7506 28.3585 10.1181 26.989 10.1181 25.5518V24.5827H9.17484L9.17478 25.5518ZM7.0773 23.4889C7.0773 23.575 7.14699 23.6451 7.23259 23.6451H10.7638C10.8494 23.6451 10.9191 23.575 10.9191 23.4889V20.667H7.0773V23.4889Z" stroke="white" strokeWidth="0.2" mask="url(#path-1-outside-1_2_19)"/>
</svg>
