<svg width="33" height="33" viewBox="0 0 33 33" fill="none" xmlns="http://www.w3.org/2000/svg">
<mask id="path-1-outside-1_2_20" maskUnits="userSpaceOnUse" x="0" y="0" width="33" height="33" fill="black">
<rect fill="white" width="33" height="33"/>
<path d="M16.5055 1C10.3035 0.999096 4.69837 4.69669 2.2573 10.3992L2.06411 10.4633L2.13901 10.688C-1.07502 18.6167 2.74552 27.6501 10.6725 30.8648C12.5239 31.6157 14.503 32.0011 16.5009 32C25.0595 32.0013 31.9987 25.0627 32 16.5023C32.0013 7.94193 25.0642 1.00123 16.5055 1ZM28.661 24.3148L27.8652 23.5194V21.6667C27.8661 21.5867 27.8484 21.5077 27.8135 21.4357L25.799 17.4114V15.4667C25.799 15.294 25.7128 15.1326 25.5691 15.0368L24.0194 14.0035C23.898 13.9223 23.7478 13.8965 23.6062 13.9322L21.7083 14.4065L18.5206 13.0383L18.0821 9.9652L19.2976 8.75H21.9067L22.7848 10.0701C22.8641 10.1888 22.9891 10.2695 23.1299 10.2928L26.2293 10.8094C26.3123 10.8234 26.3974 10.8166 26.4772 10.7898L29.3317 9.8381C31.7259 14.4335 31.4698 19.9606 28.661 24.3148ZM26.5304 6.09123L25.6905 6.6513L23.3489 6.18268L21.8297 5.67687C21.7367 5.64529 21.6367 5.64128 21.5415 5.6655L19.6209 6.14548L18.7789 5.86493L19.4029 4.61667H21.1499C21.2301 4.61673 21.3091 4.5982 21.3808 4.56242L23.1681 3.66858C24.399 4.31119 25.5313 5.127 26.5304 6.09123ZM10.843 3.18705L12.0828 4.01372C12.1437 4.05428 12.2126 4.0814 12.2847 4.09328L14.788 4.51075L14.5437 5.24183L13.2393 5.67738C13.1225 5.71626 13.0234 5.79557 12.9599 5.9011L11.4763 8.37387L9.09345 9.804L5.58084 10.3057C5.32625 10.3417 5.13693 10.5595 5.1366 10.8167V12.3667C5.1366 12.5037 5.1911 12.6351 5.28796 12.7319L6.16972 13.6139V14.5015L4.02084 13.0683L3.24135 10.7293C4.72439 7.34002 7.44259 4.64302 10.843 3.18705ZM9.37239 20.127L7.03754 19.6594L6.16972 17.9281V16.7139L8.09442 14.7888L8.80676 16.2143C8.89425 16.3894 9.0733 16.5001 9.26908 16.5H12.5926L13.992 18.8328C14.0853 18.9882 14.2534 19.0833 14.4347 19.0833H15.8707L15.5091 20.8953L13.5534 22.8514C13.4564 22.9482 13.4017 23.0796 13.4015 23.2167V24.5083L11.5419 25.9033C11.4119 26.0009 11.3353 26.154 11.3353 26.3167V28.1829L10.6927 27.97L9.78563 25.7008V20.6333C9.7857 20.3878 9.61291 20.1761 9.37239 20.127ZM7.81961 28.0695C2.94917 24.4148 0.889455 18.1001 2.66797 12.2757L3.09723 13.5633C3.13339 13.6722 3.2048 13.7661 3.30024 13.8299L5.87528 15.5467L5.28796 16.1347C5.1911 16.2316 5.1366 16.363 5.1366 16.5V18.05C5.13654 18.1301 5.15507 18.2092 5.19084 18.281L6.22396 20.3476C6.2955 20.4903 6.42897 20.592 6.58555 20.623L8.7551 21.0565V25.8C8.75504 25.8656 8.7675 25.9307 8.79178 25.9917L9.82489 28.575C9.88146 28.7161 9.9973 28.8252 10.1415 28.8731L11.6912 29.3898C11.743 29.4074 11.7972 29.4164 11.8519 29.4167C12.1371 29.4167 12.3684 29.1853 12.3684 28.9V26.575L14.228 25.18C14.3581 25.0824 14.4347 24.9293 14.4347 24.7667V23.4306L16.3496 21.5153C16.4215 21.4431 16.4706 21.3512 16.4906 21.2513L17.0071 18.6679C17.063 18.3881 16.8816 18.1159 16.6018 18.06C16.5686 18.0534 16.5348 18.05 16.5009 18.05H14.727L13.3277 15.7172C13.2343 15.5618 13.0663 15.4667 12.885 15.4667H9.58831L8.70086 13.6857C8.62654 13.537 8.48526 13.4332 8.32119 13.4067C8.15718 13.3784 7.98975 13.4325 7.87333 13.5514L7.20284 14.2194V13.4C7.20284 13.263 7.14834 13.1316 7.05149 13.0347L6.16972 12.1528V11.2646L9.34243 10.8115C9.41055 10.8016 9.47609 10.7782 9.5351 10.7428L12.1179 9.19278C12.1903 9.14925 12.251 9.08855 12.2946 9.01608L13.7461 6.59653L15.1145 6.1398C15.269 6.0891 15.3902 5.96788 15.4409 5.81327L15.9575 4.26327C16.047 3.99234 15.9 3.7001 15.6291 3.61059C15.6041 3.60232 15.5785 3.59599 15.5525 3.5916L12.5627 3.09302L12.0373 2.74272C15.288 1.68445 18.8087 1.81543 21.9718 3.11213L21.028 3.58333H19.0837C18.887 3.58224 18.7067 3.69306 18.6188 3.86905L17.5857 5.93572C17.4584 6.19108 17.5622 6.50134 17.8175 6.62863C17.8392 6.63948 17.8617 6.64878 17.8848 6.65647L19.4344 7.17313C19.5274 7.20471 19.6275 7.20872 19.7227 7.1845L21.6432 6.70452L23.0504 7.17313C23.0705 7.18037 23.0912 7.18592 23.1123 7.18967L25.6951 7.70633C25.8294 7.73372 25.9692 7.7062 26.0831 7.62987L27.2588 6.84557C27.8374 7.49017 28.3574 8.18509 28.8126 8.92205L26.2711 9.76938L23.5194 9.31058L22.6102 7.94658C22.5149 7.80366 22.3548 7.71751 22.1831 7.71667H19.0837C18.9467 7.71667 18.8153 7.77117 18.7185 7.86805L17.1688 9.41805C17.0538 9.53307 16.9996 9.69563 17.0226 9.8567L17.5392 13.4734C17.5652 13.6522 17.6827 13.8044 17.8491 13.8748L21.465 15.4248C21.5686 15.4697 21.6842 15.4789 21.7936 15.4512L23.6382 14.9898L24.7658 15.7431V17.5333C24.7649 17.6133 24.7826 17.6923 24.8175 17.7643L26.8321 21.7886V23.7333C26.8321 23.8704 26.8866 24.0017 26.9834 24.0986L28.0641 25.18C23.2715 31.5694 14.2077 32.8632 7.81961 28.0695Z"/>
</mask>
<path d="M16.5055 1C10.3035 0.999096 4.69837 4.69669 2.2573 10.3992L2.06411 10.4633L2.13901 10.688C-1.07502 18.6167 2.74552 27.6501 10.6725 30.8648C12.5239 31.6157 14.503 32.0011 16.5009 32C25.0595 32.0013 31.9987 25.0627 32 16.5023C32.0013 7.94193 25.0642 1.00123 16.5055 1ZM28.661 24.3148L27.8652 23.5194V21.6667C27.8661 21.5867 27.8484 21.5077 27.8135 21.4357L25.799 17.4114V15.4667C25.799 15.294 25.7128 15.1326 25.5691 15.0368L24.0194 14.0035C23.898 13.9223 23.7478 13.8965 23.6062 13.9322L21.7083 14.4065L18.5206 13.0383L18.0821 9.9652L19.2976 8.75H21.9067L22.7848 10.0701C22.8641 10.1888 22.9891 10.2695 23.1299 10.2928L26.2293 10.8094C26.3123 10.8234 26.3974 10.8166 26.4772 10.7898L29.3317 9.8381C31.7259 14.4335 31.4698 19.9606 28.661 24.3148ZM26.5304 6.09123L25.6905 6.6513L23.3489 6.18268L21.8297 5.67687C21.7367 5.64529 21.6367 5.64128 21.5415 5.6655L19.6209 6.14548L18.7789 5.86493L19.4029 4.61667H21.1499C21.2301 4.61673 21.3091 4.5982 21.3808 4.56242L23.1681 3.66858C24.399 4.31119 25.5313 5.127 26.5304 6.09123ZM10.843 3.18705L12.0828 4.01372C12.1437 4.05428 12.2126 4.0814 12.2847 4.09328L14.788 4.51075L14.5437 5.24183L13.2393 5.67738C13.1225 5.71626 13.0234 5.79557 12.9599 5.9011L11.4763 8.37387L9.09345 9.804L5.58084 10.3057C5.32625 10.3417 5.13693 10.5595 5.1366 10.8167V12.3667C5.1366 12.5037 5.1911 12.6351 5.28796 12.7319L6.16972 13.6139V14.5015L4.02084 13.0683L3.24135 10.7293C4.72439 7.34002 7.44259 4.64302 10.843 3.18705ZM9.37239 20.127L7.03754 19.6594L6.16972 17.9281V16.7139L8.09442 14.7888L8.80676 16.2143C8.89425 16.3894 9.0733 16.5001 9.26908 16.5H12.5926L13.992 18.8328C14.0853 18.9882 14.2534 19.0833 14.4347 19.0833H15.8707L15.5091 20.8953L13.5534 22.8514C13.4564 22.9482 13.4017 23.0796 13.4015 23.2167V24.5083L11.5419 25.9033C11.4119 26.0009 11.3353 26.154 11.3353 26.3167V28.1829L10.6927 27.97L9.78563 25.7008V20.6333C9.7857 20.3878 9.61291 20.1761 9.37239 20.127ZM7.81961 28.0695C2.94917 24.4148 0.889455 18.1001 2.66797 12.2757L3.09723 13.5633C3.13339 13.6722 3.2048 13.7661 3.30024 13.8299L5.87528 15.5467L5.28796 16.1347C5.1911 16.2316 5.1366 16.363 5.1366 16.5V18.05C5.13654 18.1301 5.15507 18.2092 5.19084 18.281L6.22396 20.3476C6.2955 20.4903 6.42897 20.592 6.58555 20.623L8.7551 21.0565V25.8C8.75504 25.8656 8.7675 25.9307 8.79178 25.9917L9.82489 28.575C9.88146 28.7161 9.9973 28.8252 10.1415 28.8731L11.6912 29.3898C11.743 29.4074 11.7972 29.4164 11.8519 29.4167C12.1371 29.4167 12.3684 29.1853 12.3684 28.9V26.575L14.228 25.18C14.3581 25.0824 14.4347 24.9293 14.4347 24.7667V23.4306L16.3496 21.5153C16.4215 21.4431 16.4706 21.3512 16.4906 21.2513L17.0071 18.6679C17.063 18.3881 16.8816 18.1159 16.6018 18.06C16.5686 18.0534 16.5348 18.05 16.5009 18.05H14.727L13.3277 15.7172C13.2343 15.5618 13.0663 15.4667 12.885 15.4667H9.58831L8.70086 13.6857C8.62654 13.537 8.48526 13.4332 8.32119 13.4067C8.15718 13.3784 7.98975 13.4325 7.87333 13.5514L7.20284 14.2194V13.4C7.20284 13.263 7.14834 13.1316 7.05149 13.0347L6.16972 12.1528V11.2646L9.34243 10.8115C9.41055 10.8016 9.47609 10.7782 9.5351 10.7428L12.1179 9.19278C12.1903 9.14925 12.251 9.08855 12.2946 9.01608L13.7461 6.59653L15.1145 6.1398C15.269 6.0891 15.3902 5.96788 15.4409 5.81327L15.9575 4.26327C16.047 3.99234 15.9 3.7001 15.6291 3.61059C15.6041 3.60232 15.5785 3.59599 15.5525 3.5916L12.5627 3.09302L12.0373 2.74272C15.288 1.68445 18.8087 1.81543 21.9718 3.11213L21.028 3.58333H19.0837C18.887 3.58224 18.7067 3.69306 18.6188 3.86905L17.5857 5.93572C17.4584 6.19108 17.5622 6.50134 17.8175 6.62863C17.8392 6.63948 17.8617 6.64878 17.8848 6.65647L19.4344 7.17313C19.5274 7.20471 19.6275 7.20872 19.7227 7.1845L21.6432 6.70452L23.0504 7.17313C23.0705 7.18037 23.0912 7.18592 23.1123 7.18967L25.6951 7.70633C25.8294 7.73372 25.9692 7.7062 26.0831 7.62987L27.2588 6.84557C27.8374 7.49017 28.3574 8.18509 28.8126 8.92205L26.2711 9.76938L23.5194 9.31058L22.6102 7.94658C22.5149 7.80366 22.3548 7.71751 22.1831 7.71667H19.0837C18.9467 7.71667 18.8153 7.77117 18.7185 7.86805L17.1688 9.41805C17.0538 9.53307 16.9996 9.69563 17.0226 9.8567L17.5392 13.4734C17.5652 13.6522 17.6827 13.8044 17.8491 13.8748L21.465 15.4248C21.5686 15.4697 21.6842 15.4789 21.7936 15.4512L23.6382 14.9898L24.7658 15.7431V17.5333C24.7649 17.6133 24.7826 17.6923 24.8175 17.7643L26.8321 21.7886V23.7333C26.8321 23.8704 26.8866 24.0017 26.9834 24.0986L28.0641 25.18C23.2715 31.5694 14.2077 32.8632 7.81961 28.0695Z" fill="white"/>
<path d="M16.5055 1C10.3035 0.999096 4.69837 4.69669 2.2573 10.3992L2.06411 10.4633L2.13901 10.688C-1.07502 18.6167 2.74552 27.6501 10.6725 30.8648C12.5239 31.6157 14.503 32.0011 16.5009 32C25.0595 32.0013 31.9987 25.0627 32 16.5023C32.0013 7.94193 25.0642 1.00123 16.5055 1ZM28.661 24.3148L27.8652 23.5194V21.6667C27.8661 21.5867 27.8484 21.5077 27.8135 21.4357L25.799 17.4114V15.4667C25.799 15.294 25.7128 15.1326 25.5691 15.0368L24.0194 14.0035C23.898 13.9223 23.7478 13.8965 23.6062 13.9322L21.7083 14.4065L18.5206 13.0383L18.0821 9.9652L19.2976 8.75H21.9067L22.7848 10.0701C22.8641 10.1888 22.9891 10.2695 23.1299 10.2928L26.2293 10.8094C26.3123 10.8234 26.3974 10.8166 26.4772 10.7898L29.3317 9.8381C31.7259 14.4335 31.4698 19.9606 28.661 24.3148ZM26.5304 6.09123L25.6905 6.6513L23.3489 6.18268L21.8297 5.67687C21.7367 5.64529 21.6367 5.64128 21.5415 5.6655L19.6209 6.14548L18.7789 5.86493L19.4029 4.61667H21.1499C21.2301 4.61673 21.3091 4.5982 21.3808 4.56242L23.1681 3.66858C24.399 4.31119 25.5313 5.127 26.5304 6.09123ZM10.843 3.18705L12.0828 4.01372C12.1437 4.05428 12.2126 4.0814 12.2847 4.09328L14.788 4.51075L14.5437 5.24183L13.2393 5.67738C13.1225 5.71626 13.0234 5.79557 12.9599 5.9011L11.4763 8.37387L9.09345 9.804L5.58084 10.3057C5.32625 10.3417 5.13693 10.5595 5.1366 10.8167V12.3667C5.1366 12.5037 5.1911 12.6351 5.28796 12.7319L6.16972 13.6139V14.5015L4.02084 13.0683L3.24135 10.7293C4.72439 7.34002 7.44259 4.64302 10.843 3.18705ZM9.37239 20.127L7.03754 19.6594L6.16972 17.9281V16.7139L8.09442 14.7888L8.80676 16.2143C8.89425 16.3894 9.0733 16.5001 9.26908 16.5H12.5926L13.992 18.8328C14.0853 18.9882 14.2534 19.0833 14.4347 19.0833H15.8707L15.5091 20.8953L13.5534 22.8514C13.4564 22.9482 13.4017 23.0796 13.4015 23.2167V24.5083L11.5419 25.9033C11.4119 26.0009 11.3353 26.154 11.3353 26.3167V28.1829L10.6927 27.97L9.78563 25.7008V20.6333C9.7857 20.3878 9.61291 20.1761 9.37239 20.127ZM7.81961 28.0695C2.94917 24.4148 0.889455 18.1001 2.66797 12.2757L3.09723 13.5633C3.13339 13.6722 3.2048 13.7661 3.30024 13.8299L5.87528 15.5467L5.28796 16.1347C5.1911 16.2316 5.1366 16.363 5.1366 16.5V18.05C5.13654 18.1301 5.15507 18.2092 5.19084 18.281L6.22396 20.3476C6.2955 20.4903 6.42897 20.592 6.58555 20.623L8.7551 21.0565V25.8C8.75504 25.8656 8.7675 25.9307 8.79178 25.9917L9.82489 28.575C9.88146 28.7161 9.9973 28.8252 10.1415 28.8731L11.6912 29.3898C11.743 29.4074 11.7972 29.4164 11.8519 29.4167C12.1371 29.4167 12.3684 29.1853 12.3684 28.9V26.575L14.228 25.18C14.3581 25.0824 14.4347 24.9293 14.4347 24.7667V23.4306L16.3496 21.5153C16.4215 21.4431 16.4706 21.3512 16.4906 21.2513L17.0071 18.6679C17.063 18.3881 16.8816 18.1159 16.6018 18.06C16.5686 18.0534 16.5348 18.05 16.5009 18.05H14.727L13.3277 15.7172C13.2343 15.5618 13.0663 15.4667 12.885 15.4667H9.58831L8.70086 13.6857C8.62654 13.537 8.48526 13.4332 8.32119 13.4067C8.15718 13.3784 7.98975 13.4325 7.87333 13.5514L7.20284 14.2194V13.4C7.20284 13.263 7.14834 13.1316 7.05149 13.0347L6.16972 12.1528V11.2646L9.34243 10.8115C9.41055 10.8016 9.47609 10.7782 9.5351 10.7428L12.1179 9.19278C12.1903 9.14925 12.251 9.08855 12.2946 9.01608L13.7461 6.59653L15.1145 6.1398C15.269 6.0891 15.3902 5.96788 15.4409 5.81327L15.9575 4.26327C16.047 3.99234 15.9 3.7001 15.6291 3.61059C15.6041 3.60232 15.5785 3.59599 15.5525 3.5916L12.5627 3.09302L12.0373 2.74272C15.288 1.68445 18.8087 1.81543 21.9718 3.11213L21.028 3.58333H19.0837C18.887 3.58224 18.7067 3.69306 18.6188 3.86905L17.5857 5.93572C17.4584 6.19108 17.5622 6.50134 17.8175 6.62863C17.8392 6.63948 17.8617 6.64878 17.8848 6.65647L19.4344 7.17313C19.5274 7.20471 19.6275 7.20872 19.7227 7.1845L21.6432 6.70452L23.0504 7.17313C23.0705 7.18037 23.0912 7.18592 23.1123 7.18967L25.6951 7.70633C25.8294 7.73372 25.9692 7.7062 26.0831 7.62987L27.2588 6.84557C27.8374 7.49017 28.3574 8.18509 28.8126 8.92205L26.2711 9.76938L23.5194 9.31058L22.6102 7.94658C22.5149 7.80366 22.3548 7.71751 22.1831 7.71667H19.0837C18.9467 7.71667 18.8153 7.77117 18.7185 7.86805L17.1688 9.41805C17.0538 9.53307 16.9996 9.69563 17.0226 9.8567L17.5392 13.4734C17.5652 13.6522 17.6827 13.8044 17.8491 13.8748L21.465 15.4248C21.5686 15.4697 21.6842 15.4789 21.7936 15.4512L23.6382 14.9898L24.7658 15.7431V17.5333C24.7649 17.6133 24.7826 17.6923 24.8175 17.7643L26.8321 21.7886V23.7333C26.8321 23.8704 26.8866 24.0017 26.9834 24.0986L28.0641 25.18C23.2715 31.5694 14.2077 32.8632 7.81961 28.0695Z" stroke="white" strokeWidth="0.8" mask="url(#path-1-outside-1_2_20)"/>
</svg>
